<svg fill="#fff" id="Слой_1" data-name="Слой 1" xmlns="http://www.w3.org/2000/svg" viewBox="0 0 55.35 75.92"><defs><style>.cls-1{fill:#212321;}</style></defs><polygon class="cls-1" points="33.21 17.95 35.02 17.95 33.61 11.12 21.68 11.12 20.34 17.95 22.14 17.95 11.3 58.42 13 75.92 27.68 21.15 42.35 75.92 44.05 58.42 33.21 17.95"/><rect class="cls-1" x="25.86" width="3.63" height="9.75"/><path class="cls-1" d="M7.14,62.08A27.69,27.69,0,0,1,15.2,18.81l.49,1A26.6,26.6,0,0,0,8,61.34Z"/><path class="cls-1" d="M27.68,71.2a27.68,27.68,0,0,1-10.23-2l.41-1a26.76,26.76,0,0,0,19.72,0l.41,1A27.49,27.49,0,0,1,27.68,71.2Z"/><path class="cls-1" d="M48.21,62.07l-.81-.73a26.58,26.58,0,0,0-6.82-41.06l.54-1a27.68,27.68,0,0,1,7.09,42.75Z"/></svg>