<svg id="Слой_1" data-name="Слой 1" xmlns="http://www.w3.org/2000/svg" viewBox="0 0 172.4 59.12"><defs><style>.cls-1{fill:#fff;}</style></defs><path class="cls-1" d="M20.74,6.78H9.52L0,59.12H8.94l1-5.71H20.36l.95,5.71h8.76ZM11.21,45.57,15,22l3.73,23.56Z"/><polygon class="cls-1" points="40.98 6.79 32.16 6.79 32.16 59.12 40.98 59.12 40.98 16.11 55.73 16.11 55.73 6.79 40.98 6.79"/><polygon class="cls-1" points="85.86 6.79 76.57 6.79 71.55 24.93 66.53 6.79 57.23 6.79 65.92 32.08 57.23 59.12 66.53 59.12 71.55 39.53 76.57 59.12 85.86 59.12 77.18 32.08 85.86 6.79"/><polygon class="cls-1" points="121.82 59.12 106.89 27.81 120.06 6.79 110.98 6.79 98.92 26.02 98.92 6.79 90.1 6.79 90.1 59.12 98.92 59.12 98.92 40.51 98.97 40.44 101.26 36.8 111.9 59.12 121.82 59.12"/><polygon class="cls-1" points="151.83 12.18 151.83 21.97 143.26 26.91 134.69 21.97 134.69 12.07 149.43 3.56 143.26 0 128.53 8.51 128.53 25.53 143.26 34.04 158 25.53 158 8.62 151.83 12.18"/><path class="cls-1" d="M166.75,5.25,157.66,0l-9.09,5.25A11.28,11.28,0,0,0,142.92,15V25.27l6.17-3.64,0-3.22h0V15a5.13,5.13,0,0,1,2.56-4.44l6-3.47,6,3.47A5.13,5.13,0,0,1,166.23,15v4a5.16,5.16,0,0,1-2.56,4.44L159.2,26l-7.66,4.43L157.66,34l9.09-5.25A11.29,11.29,0,0,0,172.4,19V15A11.28,11.28,0,0,0,166.75,5.25Z"/></svg>