<svg id="Слой_1" data-name="Слой 1" xmlns="http://www.w3.org/2000/svg" viewBox="0 0 60.24 60.51"><defs><style>.cls-1{fill:#212321;}</style></defs><path class="cls-1" d="M27.89,60.51A27.9,27.9,0,0,1,20.83,5.62l.25,1A26.92,26.92,0,1,0,54.82,32.62h1A27.92,27.92,0,0,1,27.89,60.51Z"/><polygon class="cls-1" points="20.29 11.25 27.89 5.21 18.86 1.64 20.29 11.25"/><path class="cls-1" d="M20.26,34.94v1.92H12.58V35.33l3.92-3.7a4.09,4.09,0,0,0,.84-1,1.82,1.82,0,0,0,.22-.85,1.14,1.14,0,0,0-.41-.94,1.93,1.93,0,0,0-1.22-.33,2.78,2.78,0,0,0-1.2.26,2.27,2.27,0,0,0-.9.76l-1.71-1.1A3.94,3.94,0,0,1,13.76,27a5.35,5.35,0,0,1,2.39-.5,4.91,4.91,0,0,1,2,.37,3.13,3.13,0,0,1,1.32,1,2.74,2.74,0,0,1,.47,1.59,3.6,3.6,0,0,1-.35,1.56,6,6,0,0,1-1.35,1.65l-2.34,2.21Z"/><path class="cls-1" d="M23.31,36.41a4.17,4.17,0,0,1-1.54-1.81,6.45,6.45,0,0,1-.56-2.82A6.47,6.47,0,0,1,21.77,29a4.25,4.25,0,0,1,6.05-1.81A4.24,4.24,0,0,1,29.36,29a6.47,6.47,0,0,1,.56,2.83,6.45,6.45,0,0,1-.56,2.82,4.24,4.24,0,0,1-1.54,1.81,4.41,4.41,0,0,1-4.51,0ZM27,34.24a4.45,4.45,0,0,0,.53-2.46A4.47,4.47,0,0,0,27,29.31a1.64,1.64,0,0,0-1.46-.8,1.62,1.62,0,0,0-1.44.8,4.55,4.55,0,0,0-.53,2.47,4.54,4.54,0,0,0,.53,2.46,1.62,1.62,0,0,0,1.44.8A1.64,1.64,0,0,0,27,34.24Z"/><path class="cls-1" d="M34.9,26.69V36.86H32.55V28.58h-2V26.69Z"/><path class="cls-1" d="M38.78,36.41a4.26,4.26,0,0,1-1.55-1.81,6.6,6.6,0,0,1-.56-2.82A6.61,6.61,0,0,1,37.23,29a4.26,4.26,0,0,1,1.55-1.81,4.16,4.16,0,0,1,6,1.81,6.61,6.61,0,0,1,.56,2.83,6.6,6.6,0,0,1-.56,2.82,4.19,4.19,0,0,1-1.55,1.81,4.39,4.39,0,0,1-4.5,0Zm3.71-2.17A4.45,4.45,0,0,0,43,31.78a4.47,4.47,0,0,0-.53-2.47,1.64,1.64,0,0,0-1.46-.8,1.62,1.62,0,0,0-1.44.8,4.47,4.47,0,0,0-.53,2.47,4.45,4.45,0,0,0,.53,2.46A1.62,1.62,0,0,0,41,35,1.64,1.64,0,0,0,42.49,34.24Z"/><path class="cls-1" d="M49.66,29.08c0-.25-.08-.51-.13-.77L60,26.23c.07.38.14.76.2,1.15Zm-1.23-4.51c-.09-.25-.19-.49-.3-.73L58,19.57c.15.36.3.71.44,1.07Zm-2.17-4.16-.44-.64,8.69-6.26c.23.31.45.63.67,1Zm-3-3.61-.58-.54,7.19-7.94.85.79Zm-3.7-2.9-.67-.4,5.35-9.29,1,.6Zm-4.22-2.05-.74-.25L37.85,1.39,39,1.77Zm-4.56-1.1L30,10.67,31,0l1.16.13Z"/></svg>