<svg id="Слой_1" data-name="Слой 1" xmlns="http://www.w3.org/2000/svg" viewBox="0 0 172.67 32.15"><defs><style>.cls-1{fill:#fff;}</style></defs><g id="eG8rlP.tif"><path class="cls-1" d="M53.09,17.75c-.13.31-.28.61-.4.92q-1.92,5.24-3.83,10.48c-.84,2.3-1.76,3-4.19,3-3,0-6.07,0-9.1,0-.75,0-1-.25-.93-1,.23-2.36.43-4.72.64-7.08s.4-4.6.61-6.9c.27-3,.55-6,.82-9,.21-2.24.43-4.48.58-6.73C37.39,0,37.36,0,38.83,0H51c-.59,5.54-1.16,11-1.74,16.37l.27.07c.1-.27.21-.55.3-.82L53.92,3.19C54.7.79,55.74,0,58.25,0c3.09,0,6.18,0,9.27,0,.76,0,.94.21.85,1-.28,2.33-.44,4.66-.65,7-.27,3.06-.55,6.12-.82,9.17-.21,2.33-.39,4.67-.6,7s-.46,4.83-.66,7.25c0,.58-.3.73-.84.73-4,0-8,0-12,0-.67,0-.82-.22-.75-.9.32-2.73.56-5.47.82-8.2.15-1.52.29-3,.44-4.54,0-.23,0-.45.05-.68Z"/><path class="cls-1" d="M83.85,32.12H70.51c-1,0-1.1-.13-1-1.1.24-2.36.45-4.72.66-7.08.29-3.11.57-6.23.84-9.34q.3-3.51.58-7c.19-2.21.38-4.43.56-6.64.06-.65.33-.95,1.06-.95q14.54,0,29.08,0c.79,0,1,.24,1,1-.2,1.89-.34,3.79-.56,5.67a.88.88,0,0,1-.65.56c-1,.07-2,0-3,0-4.25,0-8.49,0-12.73,0-.74,0-1.18.14-1.12,1A7.1,7.1,0,0,1,85,9.94c-.12.79.22,1,1,1,3.8,0,7.6,0,11.4,0a7.39,7.39,0,0,1,2,.19A3.33,3.33,0,0,1,102,14.58c-.12,2.45-.34,4.9-.55,7.35-.19,2.27-.43,4.54-.67,6.8A3.47,3.47,0,0,1,97,32.11c-4.39,0-8.78,0-13.17,0Zm1.71-6.38a7.12,7.12,0,0,1,.8,0c.79.09,1.14-.15,1.19-1,.13-2.24.4-4.48.56-6.72a.88.88,0,0,0-.58-.62c-.82-.08-1.65,0-2.47,0-.52,0-.71.22-.75.74-.15,1.95-.38,3.89-.5,5.84S83.75,25.74,85.56,25.74Z"/><path class="cls-1" d="M104.33,32c.21-2.23.43-4.4.62-6.58.07-.73.58-.6,1-.6h15.19c1.27,0,1.27,0,1.32-1.26a14.55,14.55,0,0,1,.16-1.48c.09-.65-.18-.91-.83-.9-1.8,0-3.6,0-5.39,0-2.42,0-4.83,0-7.25,0a3.39,3.39,0,0,1-3.48-3.54c.05-2,.23-4,.39-5.95.2-2.45.44-4.89.66-7.34.11-1.25.2-2.5.38-3.75a.88.88,0,0,1,.65-.56c4.09,0,8.19,0,12.28,0,.56,0,.71.26.66.77-.41,4.24-.8,8.49-1.2,12.74-.11,1.21,0,1.28,1.2,1.29.62,0,1.24,0,1.86,0s.73-.25.77-.75q.36-4.36.73-8.74c.12-1.48.23-3,.37-4.45.05-.5.2-.87.86-.87,4.12,0,8.24,0,12.37,0a3.27,3.27,0,0,1,.44.08c-.1,1.34-.18,2.68-.3,4-.21,2.36-.43,4.71-.65,7.07-.28,3-.55,6.05-.82,9.08-.21,2.27-.39,4.55-.6,6.82a19.11,19.11,0,0,1-.22,2,3.55,3.55,0,0,1-3.59,3q-13.42,0-26.85,0A6.79,6.79,0,0,1,104.33,32Z"/><path class="cls-1" d="M31.93,18.05c-.16,2.13-.32,4.23-.5,6.32-.13,1.48-.25,3-.48,4.44a3.52,3.52,0,0,1-3.78,3.3q-11.7,0-23.41,0c-2.48,0-4-2.08-3.72-4.61s.46-4.77.68-7.16c.27-3.08.55-6.17.82-9.26.21-2.33.47-4.66.57-7A4.16,4.16,0,0,1,6.35,0c7.48.08,15,0,22.44,0,3.29,0,4.66,1.58,4.33,4.87-.28,2.7-.51,5.41-.72,8.12,0,.63-.28.79-.87.78-4,0-8,0-11.92,0-.85,0-.91-.37-.84-1,.18-1.57.32-3.14.48-4.71.05-.5-.11-.78-.67-.78-.82,0-1.65,0-2.47,0a.91.91,0,0,0-.66.58c-.29,2.76-.51,5.53-.75,8.29q-.31,3.54-.65,7.08c0,.26,0,.52-.06.79-.06.55.15.81.74.79.74,0,1.48,0,2.21,0s.87-.32.91-.9c.11-1.69.25-3.38.37-5.08,0-.61.24-1,1-1,4,0,8.06,0,12.1,0A3.83,3.83,0,0,1,31.93,18.05Z"/><path class="cls-1" d="M139.18,32c.25-2.81.49-5.55.73-8.28q.3-3.49.61-7c.27-3.05.55-6.11.82-9.17.2-2.24.42-4.48.57-6.73,0-.67.3-.83.91-.83,8.69,0,17.38,0,26.07,0,2.64,0,4.07,1.87,3.73,4.49-.3,2.35-.41,4.72-.62,7.08s-.4,4.89-.73,7.33a3.42,3.42,0,0,1-3.73,3.13c-4.21,0-8.42,0-12.63,0-.89,0-1.29.14-1.34,1.18-.13,2.62-.43,5.24-.67,7.86-.05.55-.11,1-.88,1-4.13,0-8.25,0-12.37,0A3,3,0,0,1,139.18,32Zm17-16.32a4.19,4.19,0,0,1,.71,0c.85.13,1.2-.22,1.27-1.07.16-2.22.38-4.43.58-6.64,0-.5-.2-.7-.67-.7h-1.94c-1.17,0-1.17,0-1.25,1.17-.11,1.72-.22,3.45-.45,5.16C154.12,15.66,154.12,15.71,156.14,15.71Z"/></g></svg>