<svg id="Слой_1" data-name="Слой 1" xmlns="http://www.w3.org/2000/svg" viewBox="0 0 57.28 57.28"><defs><style>.cls-1{fill:#212321;}</style></defs><path class="cls-1" d="M45.05,25.06a17,17,0,0,0-2.32-5.58l2-2-5.06-5.06-2,2a16.59,16.59,0,0,0-5.58-2.32V9.33H24.93V12.1a16.59,16.59,0,0,0-5.58,2.32l-2-2-5.06,5.06,2,2A17,17,0,0,0,12,25.06H9.2v7.16H12a17,17,0,0,0,2.32,5.58l-2,2,5.06,5.06,2-2a17,17,0,0,0,5.58,2.32V48h7.16V45.18a17,17,0,0,0,5.58-2.32l2,2,5.06-5.06-2-2a17,17,0,0,0,2.32-5.58h2.77V25.06ZM28.64,36.79a8.16,8.16,0,1,1,8.15-8.15A8.15,8.15,0,0,1,28.64,36.79Z"/><path class="cls-1" d="M28.64,57.28a28.29,28.29,0,0,1-12.82-3l.45-.89a27.29,27.29,0,0,0,12.37,2.92A27.67,27.67,0,0,0,56.28,28.64,27.36,27.36,0,0,0,50.69,12l.8-.61A28.64,28.64,0,0,1,28.64,57.28Z"/><polygon class="cls-1" points="50.92 14.3 51.25 11.93 53.62 12.26 52.76 11.11 50.38 10.78 50.05 13.15 50.92 14.3"/><path class="cls-1" d="M43,5A27.69,27.69,0,0,0,37.8,2.55l.33-.94a28.75,28.75,0,0,1,5.35,2.53Z"/><path class="cls-1" d="M5.32,45.27A28.64,28.64,0,0,1,28.64,0,29,29,0,0,1,33.4.39l-.16,1A28.27,28.27,0,0,0,28.64,1,27.64,27.64,0,0,0,6.13,44.68Z"/><polygon class="cls-1" points="5.96 42.35 5.57 44.72 3.21 44.33 4.04 45.5 6.41 45.89 6.8 43.53 5.96 42.35"/></svg>