<svg id="Слой_1" data-name="Слой 1" xmlns="http://www.w3.org/2000/svg" viewBox="0 0 149.48 71.73"><defs><style>.cls-1{fill:#fff;}</style></defs><g id="_3C0CHw.tif" data-name="3C0CHw.tif"><path class="cls-1" d="M24.91,54.46V54q0-3.3,0-6.6c0-.37.07-.51.48-.51q8.55,0,17.09,0c.38,0,.47.13.47.49q0,8,0,16.05a.88.88,0,0,1-.27.67,25,25,0,0,1-13.17,7.12,23,23,0,0,1-6.3.38A24.46,24.46,0,0,1,6.43,63.5a24.22,24.22,0,0,1-6-12.28A22.88,22.88,0,0,1,.05,45.5a24.43,24.43,0,0,1,7.8-16.7A24,24,0,0,1,20,22.56c1.44-.28,2.92-.34,4.38-.5.34,0,.36.16.36.42,0,3.53,0,7.07,0,10.6q0,3.59,0,7.17c0,.3-.06.42-.4.43A13.63,13.63,0,0,0,13.83,46,13,13,0,0,0,11,52.41a13.75,13.75,0,0,0,5.22,13.3A12.75,12.75,0,0,0,23,68.55a13.73,13.73,0,0,0,12.12-4.33,6.61,6.61,0,0,0,1.75-4.13,7,7,0,0,0-5.48-7.41,6.91,6.91,0,0,0-6,1.37Z"/><path class="cls-1" d="M139.91,64.29c.18-1,.37-1.92.54-2.87q.68-3.63,1.33-7.26c.42-2.28.85-4.56,1.26-6.84.06-.3.17-.4.47-.4h5.57c.33,0,.4.11.4.42v24c0,.33-.09.44-.43.43-1.29,0-2.59,0-3.89,0-.51,0-.51,0-.51-.5,0-4.83,0-9.66,0-14.49a2.67,2.67,0,0,0-.15-.62,2.18,2.18,0,0,0-.26.56c-.43,2.55-.84,5.1-1.26,7.65-.38,2.35-.77,4.7-1.15,7.05,0,.23-.13.36-.4.35q-1.6,0-3.21,0c-.22,0-.33,0-.37-.3-.29-1.84-.6-3.68-.9-5.52-.35-2.1-.69-4.2-1-6.3-.16-1-.32-2-.49-3a.71.71,0,0,0,0-.26,1.43,1.43,0,0,0-.2-.23,1.51,1.51,0,0,0-.12.26,1.93,1.93,0,0,0,0,.34V71.2c0,.52,0,.52-.53.52-1.31,0-2.62,0-3.93,0-.33,0-.44-.09-.44-.43q0-12,0-23.94c0-.35.11-.44.44-.43,1.82,0,3.64,0,5.46,0,.38,0,.53.11.59.49q.72,4,1.46,7.92.79,4.35,1.61,8.68a1.76,1.76,0,0,0,.1.3Z"/><path class="cls-1" d="M33.81,45.17A38.53,38.53,0,0,1,27,26.26,39.72,39.72,0,0,1,33.84,0a41,41,0,0,1,5.73,12.51,39.91,39.91,0,0,1-.46,21.86C37.62,39.19,35.1,43.74,33.81,45.17Zm4.71-14.26A26,26,0,0,0,39.3,25,38.84,38.84,0,0,0,36.24,8.18,37.74,37.74,0,0,0,33.79,3.3,46.32,46.32,0,0,0,30,12.18a41.93,41.93,0,0,0-1.65,9.38c-.14,1.84.34,9,.8,9.45a42.77,42.77,0,0,1,1-10.3A39.44,39.44,0,0,1,33.81,11,40.24,40.24,0,0,1,38.52,30.91Zm-4.67-3.67a16.39,16.39,0,0,0-2.05,9.21,17.24,17.24,0,0,0,2,7.31,17.21,17.21,0,0,0,2-8.52A17.44,17.44,0,0,0,33.85,27.24Z"/><path class="cls-1" d="M85.81,59.32V47.42c0-.5,0-.5.51-.5H96.7c.49,0,.49,0,.49.51q0,11.9,0,23.8c0,.37-.09.5-.48.5-1.3,0-2.6,0-3.89,0-.38,0-.47-.13-.47-.49q0-10.29,0-20.59c0-.14,0-.28,0-.42s-.08-.33-.31-.33H90.94c-.2,0-.31.09-.3.3v.42q0,10.27,0,20.55c0,.55,0,.55-.53.55H86.32c-.51,0-.51,0-.51-.5Z"/><path class="cls-1" d="M126.8,59.34c0,2.77,0,5.54,0,8.31a7.55,7.55,0,0,1-.39,2.16A2.56,2.56,0,0,1,124,71.62c-1.91.08-3.83.08-5.75,0a2.91,2.91,0,0,1-2.72-2.73,11,11,0,0,1-.1-1.52c0-5.64,0-11.28,0-16.93a5,5,0,0,1,.36-1.65A2.62,2.62,0,0,1,118.21,47c1.65-.09,3.3-.07,5-.08a5,5,0,0,1,1,.1,2.92,2.92,0,0,1,2.46,2.57,8.81,8.81,0,0,1,.16,1.62C126.81,53.93,126.81,56.63,126.8,59.34Zm-4.88,0V50.71a.84.84,0,0,0-.82-.8.82.82,0,0,0-.85.75c0,.13,0,.25,0,.38V67.47c0,.12,0,.25,0,.38a.77.77,0,0,0,.77.74.8.8,0,0,0,.9-.88Z"/><path class="cls-1" d="M55.84,71.67c.17-1.57.34-3.11.5-4.65.14-1.34.26-2.69.4-4,.16-1.57.34-3.13.51-4.69.11-1.08.21-2.17.33-3.25L58,51c.12-1.09.23-2.17.34-3.26v-.07c0-.75,0-.75.78-.75,2.18,0,4.35,0,6.53,0,.35,0,.51.09.54.45.1,1.06.21,2.11.32,3.17l.36,3.4.33,3.18c.14,1.39.29,2.77.44,4.16.11,1.07.21,2.14.32,3.21.15,1.36.29,2.72.44,4.08l.3,2.91c0,.28-.15.25-.32.25H66.29c-.63,0-1.25,0-1.87,0-.34,0-.46-.12-.48-.43s-.07-.91-.1-1.36c-.11-1.52-.21-3-.31-4.56,0-.23-.12-.3-.33-.3q-.91,0-1.83,0c-.25,0-.34.09-.35.33-.1,1.57-.21,3.14-.31,4.71,0,.42-.06.84-.1,1.25,0,.21-.08.35-.35.35H56.07A1.39,1.39,0,0,1,55.84,71.67Zm6.43-9.19H63c.23,0,.32-.08.3-.31,0-.47,0-.94-.08-1.41,0-.89-.11-1.79-.17-2.69l-.36-5.2c-.06-.85-.1-1.7-.18-2.54,0-.15-.15-.28-.23-.42-.08.14-.22.27-.23.41-.06.68-.08,1.37-.13,2-.09,1.39-.19,2.78-.29,4.18l-.18,2.58c-.07,1-.13,2-.21,3,0,.25.07.37.34.35Z"/><path class="cls-1" d="M77.57,64.73V62a1.54,1.54,0,0,0-1.77-1.74c-.62,0-1.25,0-1.87,0-.29,0-.42-.07-.41-.38,0-.62,0-1.25,0-1.87,0-.29.11-.37.38-.37.77,0,1.53,0,2.29-.06a1.23,1.23,0,0,0,1.3-1.22c.06-1.4.06-2.79.08-4.19,0-.44,0-.89,0-1.33A.88.88,0,0,0,76.24,50a1,1,0,0,0-.4.94c0,1.12,0,2.23,0,3.35,0,.38-.11.48-.48.47-1.32,0-2.64,0-4,0-.31,0-.4-.1-.4-.39,0-1.28,0-2.55,0-3.82a5.82,5.82,0,0,1,.33-1.7A2.64,2.64,0,0,1,73.83,47c1.87-.07,3.76-.11,5.63,0a2.85,2.85,0,0,1,2.83,2.86c.12,2,.14,4,.07,5.94a2.81,2.81,0,0,1-2.94,2.79c-.06,0-.14,0-.19,0a1.14,1.14,0,0,0-.19.19c.07,0,.13.14.21.16.31.05.63.05.94.11a2.61,2.61,0,0,1,2.19,2.65c0,2.14,0,4.27,0,6.41A5.24,5.24,0,0,1,82,69.87a2.65,2.65,0,0,1-2.46,1.76c-1.69.09-3.38.08-5.07.07A4.25,4.25,0,0,1,73,71.43a2.82,2.82,0,0,1-1.93-2.68C71,67,71,65.17,71,63.38c0-.22.1-.29.3-.29h4.2c.29,0,.33.14.33.38,0,1.32,0,2.64,0,4a2.29,2.29,0,0,0,0,.52.73.73,0,0,0,.71.63.8.8,0,0,0,.89-.56,2,2,0,0,0,.07-.56C77.57,66.56,77.57,65.64,77.57,64.73Z"/><path class="cls-1" d="M100.61,59.29V47.43c0-.51,0-.51.5-.51h7.33a4.66,4.66,0,0,1,1,.1,3,3,0,0,1,2.5,3c.06,1.33.07,2.66.08,4,0,1.75,0,3.5,0,5.26a7,7,0,0,1-.33,1.93,2.73,2.73,0,0,1-2.58,1.94c-1,.08-2.08.06-3.12.08-.51,0-.51,0-.51.53,0,2.49,0,5,0,7.47,0,.37-.11.48-.48.47-1.28,0-2.56,0-3.85,0-.51,0-.51,0-.51-.5Zm4.83-4v.41c0,1.53,0,3.05,0,4.58a.51.51,0,0,0,.22.39,1.07,1.07,0,0,0,1.43-1c.05-1.28.06-2.56.06-3.84,0-1.59,0-3.18-.06-4.76A1,1,0,0,0,106,49.9c-.52,0-.52,0-.52.54Z"/><path class="cls-1" d="M46.21,59.32V47.43c0-.51,0-.51.5-.51,2.81,0,5.62,0,8.43,0,.37,0,.48.12.47.48,0,.67,0,1.35,0,2,0,.38-.09.51-.49.5-1.18,0-2.36,0-3.54,0-.39,0-.5.11-.49.5q0,10.38,0,20.77c0,.56,0,.56-.56.56-1.29,0-2.57,0-3.86,0-.36,0-.47-.09-.47-.47Q46.22,65.3,46.21,59.32Z"/></g></svg>