<svg id="Слой_1" data-name="Слой 1" xmlns="http://www.w3.org/2000/svg" viewBox="0 0 70.67 66.62"><defs><style>.cls-1{fill:#212321;}</style></defs><path class="cls-1" d="M57.91,45.37V9.75H55.26V30.12L43.62,18.48l8.74-8.73H48.62l-6,6-.55-6H38.64l4,35.74,2.64-.24-.09-1,10-8.15v9.27Zm-13-4.29L43.17,21.77,54.61,33.21Z"/><path class="cls-1" d="M70.67,55.16H27.5V0H70.67Zm-42.17-1H69.67V1H28.5Z"/><path class="cls-1" d="M43.17,66.62H0V11.46H28.5v42.7H43.17ZM1,65.62H42.17V55.16H27.5V12.46H1Z"/><rect class="cls-1" x="6.74" y="16.34" width="1" height="44.52"/><rect class="cls-1" x="12.85" y="36.83" width="1" height="24.03"/><rect class="cls-1" x="12.85" y="17.28" width="1" height="12.02"/><rect class="cls-1" x="17.95" y="27.62" width="1" height="17.87"/><rect class="cls-1" x="17.95" y="17.28" width="1" height="6.01"/><rect class="cls-1" x="17.95" y="51.65" width="1" height="6.01"/></svg>