<svg xmlns="http://www.w3.org/2000/svg" viewBox="0 0 156.95 42.82"><defs><style>.cls-1{fill:#fff;}</style></defs><g id="Слой_2" data-name="Слой 2"><g id="Слой_1-2" data-name="Слой 1"><path class="cls-1" d="M19,13.21h5.91l.51,2.7h5.2L27,.42H21.84L12,15.91h5.51Zm4.42-7.72.76,4h-3Z"/><path class="cls-1" d="M36.25,15.39a9.39,9.39,0,0,0,4.15.87,10.64,10.64,0,0,0,5-1.17,8.64,8.64,0,0,0,3.47-3.28A9.24,9.24,0,0,0,50.16,7a6.75,6.75,0,0,0-1-3.6A6.47,6.47,0,0,0,46.46.94,9.36,9.36,0,0,0,42.31.07a10.67,10.67,0,0,0-5,1.17A8.6,8.6,0,0,0,33.8,4.53a9.27,9.27,0,0,0-1.25,4.81,6.79,6.79,0,0,0,1,3.61A6.52,6.52,0,0,0,36.25,15.39Zm2-8.73a4.15,4.15,0,0,1,1.41-1.73,3.72,3.72,0,0,1,2.16-.64,3,3,0,0,1,2.22.82A3,3,0,0,1,44.9,7.3a5.77,5.77,0,0,1-.49,2.37A4.15,4.15,0,0,1,43,11.4a3.71,3.71,0,0,1-2.15.64,3,3,0,0,1-2.23-.82A3,3,0,0,1,37.82,9,5.77,5.77,0,0,1,38.3,6.66Z"/><polygon class="cls-1" points="64.52 12.79 62.53 8.5 66.47 3.94 61.96 3.94 58.02 8.36 60.19 12.79 64.52 12.79"/><polygon class="cls-1" points="66.05 12.79 70.39 12.79 68.4 8.5 72.33 3.94 67.82 3.94 63.88 8.36 66.05 12.79"/><polygon class="cls-1" points="77.93 8.94 80.32 14.52 82.62 14.52 86.98 8.85 85.61 15.91 90.37 15.91 93.42 0.42 88.97 0.42 82.49 8.65 79.13 0.42 74.88 0.42 71.78 15.91 76.54 15.91 77.93 8.94"/><path class="cls-1" d="M105,7.9a5.09,5.09,0,0,0,2-1.57,3.53,3.53,0,0,0,.77-2.19A3.07,3.07,0,0,0,106.9,2,5.81,5.81,0,0,0,104.48.51,10.86,10.86,0,0,0,101.06,0a14.83,14.83,0,0,0-5.73,1.17l.75,3.88a10.85,10.85,0,0,1,2.16-.75,8.91,8.91,0,0,1,2-.25,3.52,3.52,0,0,1,1.53.28.85.85,0,0,1,.57.78.86.86,0,0,1-.43.75,2,2,0,0,1-1.14.29H97.05L96.3,9.91h4.18c.92,0,1.37.28,1.37.82a1.24,1.24,0,0,1-.89,1.13,5.56,5.56,0,0,1-2.27.4A10.86,10.86,0,0,1,96.54,12a9.78,9.78,0,0,1-2.1-.7l-2.26,3.61a14.57,14.57,0,0,0,6.44,1.44,13.22,13.22,0,0,0,4.21-.65,7.34,7.34,0,0,0,3.06-1.83A3.9,3.9,0,0,0,107,11.13a3.43,3.43,0,0,0-.54-1.9A3.73,3.73,0,0,0,105,7.9Z"/><path class="cls-1" d="M14.5,33.81a5.6,5.6,0,0,0-3.72-1.1H7.08l.35-1.8h8.3l.8-3.94H3.1L0,42.46H8.17a11.16,11.16,0,0,0,4.07-.67,5.82,5.82,0,0,0,2.65-1.93,4.77,4.77,0,0,0,.93-2.93A3.85,3.85,0,0,0,14.5,33.81ZM10,38.42a2.31,2.31,0,0,1-1.41.39H5.86l.49-2.48H9q1.44,0,1.44,1A1.31,1.31,0,0,1,10,38.42Z"/><path class="cls-1" d="M24.92,27,15.05,42.46h5.51l1.55-2.7H28l.51,2.7h5.2L30.05,27Zm-.67,9,2.28-4,.75,4Z"/><path class="cls-1" d="M40.52,27,39.1,33a23.76,23.76,0,0,1-.92,3.16,4.86,4.86,0,0,1-1,1.66,1.71,1.71,0,0,1-1.23.51,2,2,0,0,1-.55-.07l-1.11,4.18a7,7,0,0,0,2.15.29,5.76,5.76,0,0,0,3.19-.81,6.15,6.15,0,0,0,2.14-2.66,25.54,25.54,0,0,0,1.64-5.22l.68-3h3.52L45.36,42.46H50.5L53.59,27Z"/><path class="cls-1" d="M61.8,27,51.93,42.46h5.51L59,39.76H64.9l.51,2.7h5.2L66.94,27Zm-.66,9,2.28-4,.75,4Z"/><polygon class="cls-1" points="90.77 26.98 84.97 26.98 80.55 32.75 79.22 32.75 80.37 26.98 75.15 26.98 72.05 42.46 77.27 42.46 78.4 36.87 80.1 36.87 81.98 42.46 87.52 42.46 84.55 34.63 90.77 26.98"/><path class="cls-1" d="M103.19,27.49A9.32,9.32,0,0,0,99,26.62a10.63,10.63,0,0,0-5,1.17,8.66,8.66,0,0,0-3.47,3.29,9.2,9.2,0,0,0-1.25,4.81,6.79,6.79,0,0,0,1,3.61A6.39,6.39,0,0,0,93,41.94a9.22,9.22,0,0,0,4.15.88,10.7,10.7,0,0,0,5-1.17,8.66,8.66,0,0,0,3.47-3.29,9.3,9.3,0,0,0,1.25-4.81,6.79,6.79,0,0,0-1-3.61A6.5,6.5,0,0,0,103.19,27.49Zm-2,8.73A4.16,4.16,0,0,1,99.74,38a3.65,3.65,0,0,1-2.16.64,2.81,2.81,0,0,1-3-3A5.68,5.68,0,0,1,95,33.21a4.09,4.09,0,0,1,1.4-1.72,3.69,3.69,0,0,1,2.16-.64,2.8,2.8,0,0,1,3,3A5.76,5.76,0,0,1,101.15,36.22Z"/><path class="cls-1" d="M123.23,33a3.73,3.73,0,0,0,.73-2.29,3.1,3.1,0,0,0-1.42-2.73,7.26,7.26,0,0,0-4.13-1H110.2l-3.1,15.49H116a9.83,9.83,0,0,0,5.21-1.24,4,4,0,0,0,2-3.69,3.09,3.09,0,0,0-.54-1.83,3.63,3.63,0,0,0-1.54-1.2A4.81,4.81,0,0,0,123.23,33Zm-5.62,5.49a2.09,2.09,0,0,1-1.28.36H113l.49-2.43h3.36a1.56,1.56,0,0,1,.92.26.9.9,0,0,1,.37.76A1.26,1.26,0,0,1,117.61,38.45Zm-.82-5.52h-2.65l.46-2.3h2.55a1.77,1.77,0,0,1,1,.24.8.8,0,0,1,.36.71C118.52,32.48,117.94,32.93,116.79,32.93Z"/><path class="cls-1" d="M138.91,27.49a9.36,9.36,0,0,0-4.15-.87,10.67,10.67,0,0,0-5,1.17,8.66,8.66,0,0,0-3.47,3.29A9.3,9.3,0,0,0,125,35.89a6.79,6.79,0,0,0,1,3.61,6.42,6.42,0,0,0,2.75,2.44,9.19,9.19,0,0,0,4.15.88,10.63,10.63,0,0,0,5-1.17,8.66,8.66,0,0,0,3.47-3.29,9.2,9.2,0,0,0,1.25-4.81,6.79,6.79,0,0,0-1-3.61A6.54,6.54,0,0,0,138.91,27.49Zm-2,8.73a4.06,4.06,0,0,1-1.4,1.73,3.69,3.69,0,0,1-2.16.64,2.8,2.8,0,0,1-3-3,5.84,5.84,0,0,1,.48-2.37,4.19,4.19,0,0,1,1.41-1.72,3.65,3.65,0,0,1,2.16-.64,2.81,2.81,0,0,1,3,3A5.6,5.6,0,0,1,136.86,36.22Z"/><polygon class="cls-1" points="154.78 30.49 150.45 30.49 152.44 34.78 148.5 39.34 153.01 39.34 156.95 34.92 154.78 30.49"/><polygon class="cls-1" points="148.92 30.49 144.58 30.49 146.57 34.78 142.64 39.34 147.15 39.34 151.09 34.92 148.92 30.49"/></g></g></svg>