<svg id="Слой_1" data-name="Слой 1" xmlns="http://www.w3.org/2000/svg" viewBox="0 0 85.3 80.09"><defs><style>.cls-1{fill:#fff;}</style></defs><g id="PhWNSQ.tif"><path class="cls-1" d="M39.63,50V33.29c0-.76,0-.76.75-.76H44.9c.44,0,.59.12.59.59q0,16.07,0,32.12c0,.61,0,1.22,0,1.83,0,.37-.15.51-.52.51-1.58,0-3.17,0-4.75,0-.55,0-.6-.3-.6-.74Z"/><path class="cls-1" d="M39.63,15.59c0-5,0-10,0-14.95,0-.54.15-.65.66-.64C41.84,0,43.41,0,45,0c.39,0,.52.1.52.51q0,15.09,0,30.18c0,.39-.08.52-.5.51-1.6,0-3.2,0-4.81,0-.43,0-.56-.09-.56-.55C39.64,25.63,39.63,20.61,39.63,15.59Z"/><path class="cls-1" d="M38.6,22.07q0,7.49,0,15c0,.44-.09.58-.55.57-1.6,0-3.21,0-4.81,0-.37,0-.48-.07-.48-.46q0-15.07,0-30.13c0-.38.1-.48.47-.48,1.6,0,3.21,0,4.81,0,.45,0,.57.1.56.56Q38.6,14.57,38.6,22.07Z"/><path class="cls-1" d="M52.35,22.05c0,5,0,10,0,15,0,.47-.11.6-.59.59-1.54,0-3.09,0-4.64,0-.51,0-.62-.13-.62-.63q0-14.59,0-29.2c0-1.24,0-1.24,1.24-1.24s2.71,0,4.07,0c.44,0,.52.12.52.53Q52.35,14.56,52.35,22.05Z"/><path class="cls-1" d="M53.4,46V15.41c0-.66,0-1.33,0-2,0-.3.09-.39.39-.39,1.66,0,3.32,0,5,0,.36,0,.45.12.44.47,0,1.16,0,2.33,0,3.49,0,7.56,0,15.12,0,22.68a1.48,1.48,0,0,1-.45,1.21c-1.71,1.63-3.38,3.3-5.07,5A.28.28,0,0,1,53.4,46Z"/><path class="cls-1" d="M31.49,46.16c-1.74-1.81-3.48-3.63-5.23-5.44A1,1,0,0,1,26,40q0-13.2,0-26.4c0-.45.12-.57.56-.56,1.61,0,3.21,0,4.81,0,.32,0,.41.09.41.41q0,16.23,0,32.46a.29.29,0,0,1,0,.1Z"/><path class="cls-1" d="M32.77,53.05c0-4.64,0-9.27,0-13.91,0-.54.16-.69.67-.68,1.51,0,3,0,4.52,0,.49,0,.69.12.69.68,0,9,0,18.09,0,27.13,0,1.3,0,1.3-1.28,1.3s-2.6,0-3.9,0c-.53,0-.68-.15-.68-.67C32.78,62.29,32.77,57.67,32.77,53.05Z"/><path class="cls-1" d="M52.35,53V66.81c0,.76,0,.76-.76.76-1.45,0-2.9,0-4.35,0-.52,0-.74-.12-.73-.71q0-13.77,0-27.54c0-.84,0-.84.85-.84l4.35,0c.34,0,.66,0,.66.52,0,4.68,0,9.35,0,14Z"/><path class="cls-1" d="M60.26,39.64v-.59q0-9.45,0-18.9c0-.47.11-.59.58-.58,1.61,0,3.21,0,4.82,0,.38,0,.46.11.46.48q0,7,0,14a.66.66,0,0,1-.2.55C64.05,36.26,62.2,37.91,60.26,39.64Z"/><path class="cls-1" d="M24.77,39.55l-2.15-1.94c-1.06-1-2.12-1.92-3.2-2.86a.88.88,0,0,1-.34-.72q0-7,0-14c0-.31.05-.43.4-.43,1.66,0,3.32,0,5,0,.27,0,.4,0,.4.36q0,9.73,0,19.46S24.82,39.46,24.77,39.55Z"/><path class="cls-1" d="M60.26,79.84c-.21,0-.42,0-.63,0s-.46-.12-.41-.44c.09-.52-.19-.58-.62-.57a7,7,0,0,1-3.44-.64,2.76,2.76,0,0,1,.09-5,7.33,7.33,0,0,1,3.39-.65c.35,0,.67,0,.58-.49,0-.25.12-.32.35-.32.4,0,.8,0,1.2,0s.72,0,.65.55c0,.34.26.25.45.25a8.54,8.54,0,0,1,3.29.56A2.76,2.76,0,0,1,67,76a2.93,2.93,0,0,1-2.17,2.53,8.42,8.42,0,0,1-2.87.36c-.43,0-.66.09-.57.56s-.12.48-.46.45S60.49,79.85,60.26,79.84Zm-1-4.12c0-.44,0-.88,0-1.32,0-.23-.06-.37-.32-.36a4.79,4.79,0,0,0-2.27.42,1.39,1.39,0,0,0-.83,1.27A1.38,1.38,0,0,0,56.66,77a4.71,4.71,0,0,0,2.28.39c.24,0,.28-.14.28-.34C59.21,76.59,59.22,76.15,59.22,75.72Zm2.19,0h0c0,.45,0,.91,0,1.37,0,.2.05.32.28.33A4.9,4.9,0,0,0,63.93,77a1.39,1.39,0,0,0,.9-1.22A1.45,1.45,0,0,0,64,74.46,4.2,4.2,0,0,0,62.12,74c-.71,0-.71,0-.71.71Z"/><path class="cls-1" d="M14.91,71.57a6.34,6.34,0,0,1,3.69.91,3.93,3.93,0,0,1-.34,6.83,7,7,0,0,1-6.23.1,3.75,3.75,0,0,1-2.29-4.09,3.9,3.9,0,0,1,2.85-3.38A6.77,6.77,0,0,1,14.91,71.57ZM15,73.18a2.82,2.82,0,0,0-2.46,1.07,2.7,2.7,0,0,0,.6,3.67c1.51.94,3.76.54,4.47-.8a2.44,2.44,0,0,0,.21-.53C18.36,74.6,17.18,73.18,15,73.18Z"/><path class="cls-1" d="M44.43,75.85c0-1.2,0-2.41,0-3.61,0-.35.06-.51.46-.5q3.49,0,7,0c.38,0,.48.11.48.49,0,1.13,0,1.12-1.14,1.12-1.35,0-2.71,0-4.06,0-.43,0-.62.09-.54.53a.59.59,0,0,1,0,.23c-.09.54.12.72.68.7,1.31,0,2.63,0,4,0,.36,0,.49.09.48.47,0,1.15,0,1.15-1.12,1.15H47.05c-.3,0-.43,0-.44.4,0,1.44,0,1.44,1.37,1.44h4c.32,0,.43.07.43.41,0,1.2,0,1.2-1.19,1.2-2.08,0-4.16,0-6.24,0-.41,0-.52-.11-.51-.51C44.45,78.18,44.43,77,44.43,75.85Z"/><path class="cls-1" d="M26.66,71.56A6.24,6.24,0,0,1,31,72.87a3.11,3.11,0,0,1,.91,1.42c.1.32,0,.41-.31.4-.53,0-1.07,0-1.6,0a.49.49,0,0,1-.53-.32A2,2,0,0,0,28,73.3a4.73,4.73,0,0,0-2.42.06,2.6,2.6,0,0,0,.42,5,4.36,4.36,0,0,0,2.15-.1,1.86,1.86,0,0,0,1.31-1.17.43.43,0,0,1,.5-.34c.53,0,1.07,0,1.6,0,.37,0,.42.11.32.43A3.36,3.36,0,0,1,30,79.35a7.24,7.24,0,0,1-6.09.11,3.85,3.85,0,0,1-2.4-4A4,4,0,0,1,24.34,72a6.32,6.32,0,0,1,1.21-.31C26,71.58,26.43,71.58,26.66,71.56Z"/><path class="cls-1" d="M42.36,75.85c0,1.18,0,2.36,0,3.55,0,.35-.11.47-.46.45-.55,0-1.25.17-1.61-.1s-.09-1-.12-1.57,0-.92,0-1.38c0-.29-.11-.4-.4-.4-1.21,0-2.41,0-3.61,0-.35,0-.41.14-.4.44,0,.82,0,1.64,0,2.46,0,.4-.06.61-.53.55s-1.24.23-1.58-.14-.09-1-.1-1.55c0-1.94,0-3.89,0-5.84,0-.49.16-.63.62-.58a9.61,9.61,0,0,0,1.2,0c.3,0,.4.09.4.39,0,.72,0,1.45,0,2.17,0,.36.07.52.47.51,1.16,0,2.33,0,3.49,0,.34,0,.48-.1.46-.46,0-.72,0-1.45,0-2.17,0-.32.07-.45.41-.43s.88,0,1.32,0,.48.14.47.5C42.35,73.44,42.36,74.65,42.36,75.85Z"/><path class="cls-1" d="M0,75.78c0-1.18,0-2.36,0-3.54,0-.32.07-.51.44-.5,1.85,0,3.7-.08,5.55.08a2.69,2.69,0,0,1,2.26,4.06,2.83,2.83,0,0,1-2.38,1.35,23.48,23.48,0,0,1-3.14.06c-.41,0-.52.13-.5.52s0,1.07,0,1.6c0,.31-.09.45-.43.44s-.91,0-1.37,0S0,79.73,0,79.39C0,78.19,0,77,0,75.78Zm3.9-.1a13.94,13.94,0,0,0,1.54-.11,1,1,0,0,0,.94-1.19c0-.58-.39-.9-1.08-.94s-1.6,0-2.39-.09c-.56,0-.75.14-.69.69s-.15,1.19.1,1.49S3.34,75.59,3.91,75.68Z"/><path class="cls-1" d="M76.88,75.79c0-1.16,0-2.33,0-3.49,0-.42.09-.61.54-.56a3.94,3.94,0,0,0,1,0c.6-.08.76.15.71.72s0,1.22,0,1.83c0,.42.13.52.53.5.89,0,1.79,0,2.69,0a4,4,0,0,1,1.29.18,2.35,2.35,0,0,1,1.72,2.35,2.28,2.28,0,0,1-1.8,2.33,4.38,4.38,0,0,1-1.24.18c-1.62,0-3.24,0-4.86,0-.4,0-.54-.1-.53-.51C76.9,78.16,76.88,77,76.88,75.79Zm3.93,2.44v0c.26,0,.53,0,.8,0s.46,0,.68,0a.79.79,0,0,0,.79-.92c0-.62-.44-.77-.91-.8-.92,0-1.83,0-2.75,0-.5,0-.37.42-.31.63.11.4-.41,1,.33,1.18A6.25,6.25,0,0,0,80.81,78.23Z"/><path class="cls-1" d="M71.75,71.74c1.23,0,2.45,0,3.67,0,.4,0,.52.13.52.53,0,1.08,0,1.08-1.09,1.08-.48,0-1,0-1.43,0s-.59.16-.58.61c0,1.75,0,3.51,0,5.26,0,.52-.15.69-.65.63a5.57,5.57,0,0,0-1.08,0c-.41,0-.52-.12-.52-.51,0-1.8,0-3.59,0-5.38,0-.46-.09-.65-.59-.62-.68,0-1.37,0-2.06,0-.33,0-.47-.08-.48-.45,0-1.17,0-1.17,1.11-1.17Z"/></g></svg>