<svg id="Слой_1" data-name="Слой 1" xmlns="http://www.w3.org/2000/svg" viewBox="0 0 136.97 70.01"><defs><style>.cls-1{fill:#fff;}</style></defs><g id="pGa3qj.tif"><path class="cls-1" d="M31.9,61.08H28.45v8.41c0,.52-.05.55-.58.51a28.2,28.2,0,0,1-5.3-1,.54.54,0,0,1-.48-.62q0-10.4,0-20.8c0-.38.1-.55.5-.57,1.82-.11,3.64-.23,5.45-.36.37,0,.42.17.42.47q0,3.48,0,6.95v.48H31.9V47.19c0-.47,0-.51.5-.48l5.46.37c.31,0,.41.16.41.46q0,10.45,0,20.91a.46.46,0,0,1-.38.51A27.29,27.29,0,0,1,32.3,70c-.34,0-.4-.15-.4-.44V61.08Z"/><path class="cls-1" d="M14.22,59.43c-.32-.11-.49,0-.62.23-.45,1-.93,1.89-1.4,2.83-.22.44-.33.46-.69.12a37.41,37.41,0,0,1-6.78-8.79l-.6-1.09c-.13-.23-.12-.42.14-.53C6,51.45,7.72,50.69,9.46,50c.3-.13.43,0,.43.35v4c0,.1,0,.2,0,.29a.41.41,0,0,0,.61-.26c.82-1.74,1.65-3.48,2.49-5.2a.84.84,0,0,1,.48-.41c2.19-.46,4.39-.89,6.59-1.32.42-.09.48,0,.48.43v20c0,.4-.14.49-.5.32-1.09-.51-2.19-1-3.24-1.59-.79-.43-1.51-1-2.27-1.45a.69.69,0,0,1-.34-.66c0-1.52,0-3,0-4.56Z"/><path class="cls-1" d="M25.41,44l-.07,0c-.62.06-.62.06-.78-.53A15.28,15.28,0,0,0,23,39.84a10.07,10.07,0,0,0-8-5.29,12.38,12.38,0,0,0-10,3.21A10.82,10.82,0,0,0,1.6,44c0,.13-.16.25-.24.36-.11-.11-.29-.22-.32-.35C.79,42.66.51,41.32.33,40a37.79,37.79,0,0,1-.16-8.57,1.08,1.08,0,0,1,.25-.6A12.67,12.67,0,0,1,9.77,26.3a11.79,11.79,0,0,1,8,2.93,20.54,20.54,0,0,1,5,6.65,27.5,27.5,0,0,1,2.55,7.84A1.23,1.23,0,0,1,25.41,44Z"/><path class="cls-1" d="M34.82,44c.16-.77.3-1.56.49-2.33a25.57,25.57,0,0,1,5.26-10.54,12.94,12.94,0,0,1,6.94-4.47,12.11,12.11,0,0,1,10.92,2.75,9.42,9.42,0,0,1,1.48,1.48c.44.58.25,1.34.29,2a39.39,39.39,0,0,1-1,11.09c0,.14-.23.25-.34.37a1.2,1.2,0,0,1-.23-.41,10.2,10.2,0,0,0-3.41-6.2c-3.64-3.22-7.82-4.26-12.46-2.62a10.91,10.91,0,0,0-6.41,6.48c-.27.62-.47,1.28-.68,1.93S35.54,44.13,34.82,44Z"/><path class="cls-1" d="M46.25,54.58a.45.45,0,0,0,.66-.29c.72-1.51,1.46-3,2.19-4.51.22-.43.27-.48.69-.27,1.29.63,2.56,1.29,3.83,1.93.31.16.27.37.14.63L51.9,56c.4.29.8.57,1.19.87s.44.39.11.79C52,59,50.77,60.44,49.56,61.85l-.23.2a4.4,4.4,0,0,0-2.7-1c-.33,0-.44.08-.43.42,0,1,0,1.93,0,2.89a.64.64,0,0,1-.28.57A28.27,28.27,0,0,1,40.42,68c-.44.18-.55.11-.55-.36q0-9.93,0-19.87c0-.38.15-.48.48-.41l5.56,1.07c.28.05.31.24.31.48,0,1.73,0,3.47,0,5.2Z"/><path class="cls-1" d="M34.13,44h-.72c.05-.62.1-1.22.17-1.82a59.36,59.36,0,0,1,2.34-11.48,34.61,34.61,0,0,1,4.29-9.15,17.22,17.22,0,0,1,5.3-5.21A12.18,12.18,0,0,1,55.21,15a.63.63,0,0,1,.36.28,36.89,36.89,0,0,1,3.88,9.5,1.17,1.17,0,0,1-.08.44,1.25,1.25,0,0,1-.46-.16,10.54,10.54,0,0,0-8.06-2.92,13.17,13.17,0,0,0-7.55,3.07,22.51,22.51,0,0,0-5.8,7.43A32.3,32.3,0,0,0,34.24,43.2C34.21,43.44,34.17,43.68,34.13,44Z"/><path class="cls-1" d="M26.86,43.94l-.42,0-.28,0c-.17-1-.32-2-.51-3a29.11,29.11,0,0,0-6-13.1,15.19,15.19,0,0,0-7.09-5.11A10.79,10.79,0,0,0,1.36,25.07a1.28,1.28,0,0,1-.45.17,1.15,1.15,0,0,1-.07-.47,36.52,36.52,0,0,1,3.84-9.43A.85.85,0,0,1,5.13,15a12.46,12.46,0,0,1,12.6,3.66,26.1,26.1,0,0,1,5.41,8.64,49.88,49.88,0,0,1,3,11.07c.27,1.71.45,3.44.66,5.16C26.85,43.65,26.85,43.78,26.86,43.94Z"/><path class="cls-1" d="M32.65,43.93l-.69,0c0-.77.06-1.53.11-2.28.16-2.38.3-4.76.51-7.13A99.26,99.26,0,0,1,35,18.31,26.88,26.88,0,0,1,38,11a14.33,14.33,0,0,1,7.43-6.11.63.63,0,0,1,.68.1A30.58,30.58,0,0,1,51.65,10a1.61,1.61,0,0,1,.22.48,1.81,1.81,0,0,1-.48.16,14.4,14.4,0,0,0-8.1,2.89,17.86,17.86,0,0,0-4.48,5.27A35.42,35.42,0,0,0,35.25,28a90.32,90.32,0,0,0-2.55,15.5C32.69,43.61,32.67,43.74,32.65,43.93Z"/><path class="cls-1" d="M28.29,43.89l-.67,0c0-.49-.09-1-.13-1.44a90.19,90.19,0,0,0-2.6-15,32.86,32.86,0,0,0-4.05-9.62,15.14,15.14,0,0,0-7-6.09,15.62,15.62,0,0,0-5-1.07,1.4,1.4,0,0,1-.46-.19,1.81,1.81,0,0,1,.2-.42,31.87,31.87,0,0,1,5.64-5.18.58.58,0,0,1,.63,0,14.63,14.63,0,0,1,8.21,7.49,34.54,34.54,0,0,1,2.8,8.53,96.67,96.67,0,0,1,1.6,11.23c.31,3.69.55,7.38.81,11.07C28.3,43.39,28.29,43.63,28.29,43.89Z"/><path class="cls-1" d="M29.76,43.87h-.69c0-.23,0-.47-.05-.7-.14-3.28-.25-6.56-.42-9.84a135.44,135.44,0,0,0-1.36-14.9,38.2,38.2,0,0,0-2.63-9.6,15.11,15.11,0,0,0-4.95-6.37c-.31-.22-.27-.44.12-.6A27.23,27.23,0,0,1,25.52.17c.31-.06.63-.09.94-.15s.38,0,.45.29A46,46,0,0,1,28.3,6.76a108.44,108.44,0,0,1,1,12.72c.15,5,.24,10,.34,15,.06,3,.09,6,.13,9Z"/><path class="cls-1" d="M31.21,43.87h-.7v-.72c.06-4.34.1-8.69.2-13,.11-4.89.24-9.78.45-14.66A71.68,71.68,0,0,1,32.5,3.77c.25-1.16.58-2.31.86-3.46.07-.27.19-.33.45-.3a27.51,27.51,0,0,1,6.72,1.87c.35.15.38.37.09.58a15.86,15.86,0,0,0-5.47,7.6A40.3,40.3,0,0,0,33,18.43a128.46,128.46,0,0,0-1.31,14.11c-.17,3.55-.31,7.11-.47,10.66C31.25,43.42,31.22,43.63,31.21,43.87Z"/><path class="cls-1" d="M91.33,42.84c.66,0,1.26,0,1.87,0,.1,0,.23.17.29.29.46.94.91,1.89,1.36,2.84.06.12.12.25.22.43.08-.16.15-.27.2-.39.46-1,.91-1.92,1.35-2.89a.42.42,0,0,1,.45-.3c.54,0,1.09,0,1.66,0v7.23H97.12V45.56l-.09,0c-.06.1-.12.19-.17.29-.38.8-.77,1.59-1.13,2.4a.57.57,0,0,1-.57.37.85.85,0,0,1-1-.63,17.14,17.14,0,0,0-1.22-2.42V50.1c-.51,0-1,0-1.41,0-.07,0-.17-.22-.17-.34,0-1.11,0-2.23,0-3.34V42.84Z"/><path class="cls-1" d="M94.61,38.07H93L93,38c-.06-.61-.06-.61-.71-.74a2.95,2.95,0,0,1,.09-5.83l.58-.09,0-.64h1.61l0,.65a3.39,3.39,0,0,1,2.55,1.24,2.84,2.84,0,0,1,.58,1.85c0,1.58-1,2.46-3.13,2.93ZM93,32.73a1.54,1.54,0,0,0-1.51,1.8A1.43,1.43,0,0,0,93,35.91ZM94.66,36a1.54,1.54,0,0,0,1.51-1.63,1.5,1.5,0,0,0-1.51-1.57Z"/><path class="cls-1" d="M126.92,45.61l-.24.36q-1.22,1.92-2.41,3.86a.46.46,0,0,1-.49.27,6.91,6.91,0,0,0-.91,0c-.33,0-.43-.08-.43-.42,0-2,0-4,0-6v-.78h1.64v4.47l.1,0a3,3,0,0,0,.2-.29q1.24-2,2.46-4a.48.48,0,0,1,.49-.27c.41,0,.83,0,1.28,0v7.24H127V45.63Z"/><path class="cls-1" d="M83,18.63v7.21H81.42V21.43l-.1,0c-.08.11-.16.21-.22.31-.81,1.29-1.62,2.57-2.41,3.87a.55.55,0,0,1-.55.3c-.41,0-.83,0-1.27,0,0-.17,0-.29,0-.41,0-2.13,0-4.26,0-6.38,0-.36.11-.47.45-.45s.78,0,1.21,0v4.5l.09,0,.24-.36q1.2-1.93,2.39-3.88a.52.52,0,0,1,.52-.29C82.15,18.64,82.57,18.63,83,18.63Z"/><path class="cls-1" d="M86.53,50.22a3.5,3.5,0,0,1-3.59-3.8,3.6,3.6,0,1,1,7.19,0A3.51,3.51,0,0,1,86.53,50.22Zm-2-3.71c.08.33.12.71.24,1.06a1.84,1.84,0,0,0,3.49,0,3.21,3.21,0,0,0,.08-2,1.87,1.87,0,0,0-3.65,0C84.63,45.85,84.61,46.15,84.55,46.51Z"/><path class="cls-1" d="M120.85,50.08h-1.62V47.71c0-.73.09-.63-.66-.64h-2.09v3h-1.64v-7.2h1.61v2.75h2.77V42.86h1.63Z"/><path class="cls-1" d="M100.38,42.86h5.89V50.1c-.49,0-1,0-1.44,0-.07,0-.17-.21-.18-.33,0-1.2,0-2.4,0-3.61V44.29H102v5.77h-1.64Z"/><path class="cls-1" d="M76.85,30.75h1.64v2.81c.89,0,1.74,0,2.58,0,.06,0,.18-.19.18-.29,0-.68,0-1.37,0-2v-.44h1.63V38c-.5,0-1,0-1.47,0-.06,0-.15-.21-.15-.32q0-1.14,0-2.28c0-.29-.07-.4-.38-.39-.78,0-1.55,0-2.36,0v3c-.54,0-1,0-1.54,0,0,0-.13-.22-.13-.34,0-.83,0-1.67,0-2.5V30.75Z"/><path class="cls-1" d="M115.94,30.76h1.64V38H116V35h-2.76v2.94h-1.64V30.77h1.61v2.76h2.75Z"/><path class="cls-1" d="M133.64,47.56a.76.76,0,0,0-1,.39c-.4.65-.86,1.25-1.28,1.88a.52.52,0,0,1-.53.27c-.33,0-.65,0-1,0a1.38,1.38,0,0,1,.24-1.2c.44-.55.84-1.14,1.26-1.73a.57.57,0,0,0-.12-.11,2.11,2.11,0,0,1-1.11-2.39A2.08,2.08,0,0,1,132,42.94c1.09-.12,2.19-.1,3.32-.14,0,.21,0,.35,0,.48,0,2.13,0,4.26,0,6.38,0,.35-.09.48-.44.45a6.91,6.91,0,0,0-.91,0c-.24,0-.32-.08-.31-.3,0-.61,0-1.22,0-1.83Zm.05-2.32h0c0-.26,0-.51,0-.76a.33.33,0,0,0-.21-.23,6,6,0,0,0-.95,0,.86.86,0,0,0-.76.65.93.93,0,0,0,.28,1,1.81,1.81,0,0,0,1.52.22c.08,0,.09-.51.13-.78Z"/><path class="cls-1" d="M131.37,30.8v7.14h-1.62V35.47c-.53-.17-.66-.13-.95.29-.44.63-.89,1.26-1.31,1.91a.59.59,0,0,1-.59.31c-.14,0-.28,0-.42,0a2.4,2.4,0,0,1-.55-.09A1.67,1.67,0,0,1,126,37c.37-.61.83-1.18,1.25-1.76a1.93,1.93,0,0,0,.13-.21l-.15-.11a2.2,2.2,0,0,1,.42-4,1.61,1.61,0,0,1,.48-.12C129.23,30.79,130.28,30.8,131.37,30.8Zm-1.62,2.29h0l-.12-1-1.17,0h0a.9.9,0,0,0-.65.88c0,.65.43,1,1.24,1s.69.07.7-.67C129.76,33.3,129.75,33.2,129.75,33.09Z"/><path class="cls-1" d="M131.51,25.86a1.4,1.4,0,0,1,.29-1.26c.43-.53.8-1.1,1.22-1.66l-.21-.14a2,2,0,0,1-1.07-2,2,2,0,0,1,1.39-1.9,2.85,2.85,0,0,1,1-.21c.85,0,1.7,0,2.55,0,.2,0,.34,0,.34.28q0,3.39,0,6.76a.68.68,0,0,1,0,.17h-1.61V24a1.13,1.13,0,0,0,0-.26c0-.16-.06-.43-.13-.45a.58.58,0,0,0-.73.22c-.44.69-.94,1.35-1.39,2a.59.59,0,0,1-.59.31C132.15,25.84,131.84,25.86,131.51,25.86ZM135.35,21c0-1.09,0-1.12-1.07-1a.8.8,0,0,0-.15,0,.89.89,0,0,0-.7.62,1,1,0,0,0,.28,1c.23.2,1.34.41,1.5.21s.1-.51.13-.77A.76.76,0,0,0,135.35,21Z"/><path class="cls-1" d="M104.51,38a1.41,1.41,0,0,1,.29-1.27c.43-.52.81-1.09,1.23-1.67a2.08,2.08,0,0,1-1.24-1.48,2.15,2.15,0,0,1,1.82-2.71c1.08-.14,2.19-.1,3.32-.14,0,.21,0,.35,0,.48,0,2.12,0,4.23,0,6.35,0,.33-.08.48-.44.45a4.6,4.6,0,0,0-.83,0c-.29,0-.37-.11-.37-.38,0-.58,0-1.17,0-1.75,0-.15-.07-.41-.15-.43a.56.56,0,0,0-.7.19c-.44.68-.93,1.33-1.37,2a.67.67,0,0,1-.68.36C105.12,38,104.82,38,104.51,38Zm3.84-4.9c0-1-.08-1.12-1.14-.92h0a.91.91,0,0,0-.78,1.07c.09.65.61.93,1.65.84.58,0,.18-.51.29-.77A.54.54,0,0,0,108.35,33.07Z"/><path class="cls-1" d="M76.88,42.86h1.61v2.86l.13.08a2.61,2.61,0,0,1,.17-.28c.65-.78,1.32-1.54,1.95-2.33a.82.82,0,0,1,.77-.36,6.68,6.68,0,0,0,.78,0,1.13,1.13,0,0,1-.2,1.1c-.7.76-1.36,1.56-2.07,2.38l.9,1,1.35,1.55c.41.46.42.51.3,1.2-.42,0-.85,0-1.27,0-.13,0-.26-.15-.35-.26-.79-.89-1.57-1.79-2.42-2.76v3H76.88Z"/><path class="cls-1" d="M120.92,22.11l2.26,2.58c.38.43.4.5.28,1.17-.42,0-.84,0-1.27,0a.62.62,0,0,1-.33-.22c-.71-.8-1.41-1.62-2.12-2.43l-.34-.36v3h-1.64V18.64c.48,0,1,0,1.44,0,.06,0,.17.19.18.29,0,.72,0,1.45,0,2.17,0,.13,0,.26,0,.51l.31-.35c.65-.77,1.31-1.54,2-2.33a.71.71,0,0,1,.67-.32,8.42,8.42,0,0,0,.87,0,1.21,1.21,0,0,1-.31,1.18C122.22,20.54,121.59,21.32,120.92,22.11Z"/><path class="cls-1" d="M94,22.1c.75.87,1.47,1.73,2.23,2.54a1.21,1.21,0,0,1,.33,1.22c-.43,0-.88,0-1.33,0-.11,0-.23-.15-.31-.25-.72-.8-1.42-1.62-2.13-2.43l-.3-.32v3H90.86c0-.15,0-.29,0-.42,0-2.12,0-4.23,0-6.35,0-.35.1-.47.45-.45s.76,0,1.2,0v2.88l.1,0,.87-1c.44-.53.89-1,1.31-1.58a.68.68,0,0,1,.68-.3c.1,0,.21,0,.31,0s.52,0,.54.11a.89.89,0,0,1-.14.88C95.42,20.43,94.73,21.25,94,22.1Z"/><path class="cls-1" d="M113.9,50.1c-.52,0-.92,0-1.3,0a.47.47,0,0,1-.28-.24c-.14-.32-.26-.66-.37-1a.34.34,0,0,0-.37-.29c-.73,0-1.45,0-2.17,0a.46.46,0,0,0-.34.25c-.15.33-.25.69-.39,1a.4.4,0,0,1-.25.23c-.36,0-.73,0-1.17,0a4.32,4.32,0,0,1,.1-.92c.75-2,1.53-4.1,2.3-6.15a1.54,1.54,0,0,1,.09-.19c.48,0,1,0,1.44,0,.12,0,.27.19.32.32.74,1.9,1.46,3.8,2.16,5.72A7.32,7.32,0,0,1,113.9,50.1Zm-3.34-5.25-.09,0-.84,2.35h1.75Z"/><path class="cls-1" d="M122.7,30.74c.73,1.94,1.47,3.85,2.18,5.77a7.85,7.85,0,0,1,.26,1.28s0,.08,0,.17c-.42,0-.86,0-1.3,0-.07,0-.16-.14-.2-.23-.13-.34-.24-.7-.39-1a.44.44,0,0,0-.32-.23c-.73,0-1.47,0-2.2,0a.45.45,0,0,0-.32.24,7.84,7.84,0,0,0-.35,1c-.07.23-.18.34-.43.32a3.49,3.49,0,0,0-.46,0c-.59,0-.65-.06-.55-.65a2.63,2.63,0,0,1,.18-.54c.71-1.91,1.43-3.81,2.13-5.72a.41.41,0,0,1,.47-.33C121.81,30.76,122.25,30.74,122.7,30.74Zm-.83,2h-.11l-.82,2.32h1.75Z"/><path class="cls-1" d="M130.74,25.86c-.49,0-.89,0-1.29,0a.39.39,0,0,1-.25-.22c-.14-.32-.26-.66-.37-1a.36.36,0,0,0-.41-.3c-.69,0-1.39,0-2.09,0a.38.38,0,0,0-.41.3c-.09.3-.23.59-.31.89a.4.4,0,0,1-.48.34c-.3,0-.61,0-1,0a4.79,4.79,0,0,1,.15-1c.72-2,1.47-3.93,2.19-5.9a.45.45,0,0,1,.5-.35,8.83,8.83,0,0,0,1,0,.33.33,0,0,1,.38.27c.75,2,1.52,4,2.26,6A4.42,4.42,0,0,1,130.74,25.86ZM128.27,23l-.84-2.37h-.08L126.51,23Z"/><path class="cls-1" d="M88.69,34.91c-.72,0-1.41,0-2.1,0-.38,0-.5.11-.46.47s-.09.9.11,1.12.71.08,1.09.08c.57,0,1.13,0,1.72,0v1.36H84.5V30.77h4.55v1.37H86.14c0,.47,0,.88,0,1.29,0,.07.2.18.3.18.6,0,1.19,0,1.79,0h.45Z"/><path class="cls-1" d="M116.5,20.77h-1.08a.35.35,0,0,1-.24-.12,1.77,1.77,0,0,0-2.78-.13,3.06,3.06,0,0,0,0,3.45,1.76,1.76,0,0,0,2.81-.13.4.4,0,0,1,.26-.15h1a1.49,1.49,0,0,1-.5,1.61,3.58,3.58,0,0,1-5.64-1.8,4.49,4.49,0,0,1,.18-3,3.21,3.21,0,0,1,2.93-2,3.71,3.71,0,0,1,2.14.42A1.61,1.61,0,0,1,116.5,20.77Z"/><path class="cls-1" d="M86.27,23.5v2.34H84.65V18.62a16.78,16.78,0,0,1,3.4.16,2.23,2.23,0,0,1,1.7,2.5,2.47,2.47,0,0,1-2.36,2.22C87,23.52,86.69,23.5,86.27,23.5Zm0-3.52c0,.71,0,1.33,0,1.94a.28.28,0,0,0,.18.21,3.55,3.55,0,0,0,1-.08A1,1,0,0,0,88.11,21a.92.92,0,0,0-.76-.92A8.62,8.62,0,0,0,86.25,20Z"/><path class="cls-1" d="M98.58,25.86a1.34,1.34,0,0,1,.2-1.15,1.58,1.58,0,0,0,0-2.16c-.56-.84-1-1.79-1.48-2.68a1.77,1.77,0,0,1-.21-1.23c.43,0,.88,0,1.33,0,.09,0,.18.15.24.25.47.87.92,1.75,1.39,2.62l.22.38.36-.7c.38-.74.76-1.49,1.12-2.24a.47.47,0,0,1,.55-.33,2.43,2.43,0,0,0,.27,0c.68,0,.87.35.53,1-.81,1.56-1.63,3.11-2.45,4.67-.24.45-.46.9-.72,1.34a.49.49,0,0,1-.33.21C99.3,25.88,99,25.86,98.58,25.86Z"/><path class="cls-1" d="M101.84,32.16c0,.19,0,.35,0,.52,0,1.62,0,3.24,0,4.86,0,.32-.07.47-.42.44s-.93.1-1.16-.11-.08-.74-.08-1.13V32.17h-2V30.76h5.72c0,.41,0,.82,0,1.23,0,.06-.21.15-.32.16Z"/><path class="cls-1" d="M107.6,25.86h-1.32l-.33,0V20h-2V18.65l.39,0c1.64,0,3.27,0,4.91,0,.35,0,.45.1.45.45,0,1,0,1-1,1-.22,0-.43,0-.65,0s-.48.08-.47.46c0,1.62,0,3.24,0,4.86Z"/></g></svg>