<?xml version="1.0" encoding="UTF-8"?><svg id="_ар_2" xmlns="http://www.w3.org/2000/svg" viewBox="0 0 225.58 347.2"><defs><style>.cls-1{fill:#f0f0f0;}</style></defs><g id="_лой_1"><g><g><path class="cls-1" d="M26.42,346.33c-5.48,0-10.21-.9-14.17-2.71-3.97-1.81-7-4.93-9.1-9.36-2.1-4.43-3.15-10.55-3.15-18.37v-5.95H13.82v6.82c0,5.48,.52,9.71,1.57,12.68,1.05,2.97,2.56,5.05,4.55,6.21,1.98,1.17,4.2,1.75,6.65,1.75,3.96,0,7.23-1.31,9.8-3.94,2.56-2.62,3.85-7.37,3.85-14.26,0-5.01-.76-8.77-2.27-11.28-1.52-2.51-3.79-4.52-6.82-6.04-3.03-1.51-6.82-3.21-11.37-5.07-3.85-1.63-7.23-3.56-10.15-5.77-2.92-2.21-5.13-5.1-6.65-8.66-1.52-3.56-2.27-8.02-2.27-13.38,0-6.3,.84-11.46,2.54-15.48,1.69-4.02,4.46-7.03,8.31-9.01,3.85-1.98,9.04-2.97,15.57-2.97,8.28,0,14.7,2.01,19.24,6.04,4.55,4.02,6.82,9.77,6.82,17.23v11.72h-13.3v-8.05c0-5.48-1.05-9.56-3.15-12.25-2.1-2.68-5.31-4.02-9.62-4.02-4.55,0-7.81,1.34-9.8,4.02-1.98,2.68-2.97,6.82-2.97,12.42,0,4.32,.84,7.73,2.54,10.23,1.69,2.51,3.91,4.43,6.65,5.77,2.74,1.34,5.63,2.6,8.66,3.76,5.25,1.98,9.47,4.05,12.68,6.21,3.21,2.16,5.57,4.93,7.08,8.31,1.51,3.38,2.27,8.22,2.27,14.52,0,7.12-1.17,12.8-3.5,17.06-2.33,4.26-5.57,7.29-9.71,9.1-4.14,1.81-9.01,2.71-14.61,2.71Z"/><path class="cls-1" d="M95.69,347.2c-5.25,0-9.91-.61-14-1.84-4.08-1.22-7.29-3.76-9.62-7.61-2.33-3.85-3.5-9.62-3.5-17.32v-57.03c0-6.41,1.16-11.28,3.5-14.61,2.33-3.32,5.57-5.57,9.71-6.74,4.14-1.16,8.83-1.75,14.08-1.75s10,.61,13.91,1.84c3.91,1.22,7,3.47,9.27,6.74,2.27,3.27,3.41,8.11,3.41,14.52v18.89h-13.47v-19.24c0-4.2-.59-7.32-1.75-9.36-1.17-2.04-2.74-3.38-4.72-4.02-1.98-.64-4.26-.96-6.82-.96s-4.84,.32-6.82,.96c-1.98,.64-3.53,1.98-4.64,4.02-1.11,2.04-1.66,5.16-1.66,9.36v61.58c0,4.2,.55,7.32,1.66,9.36,1.11,2.04,2.65,3.38,4.64,4.02,1.98,.64,4.26,.96,6.82,.96s4.99-.32,6.91-.96c1.92-.64,3.47-1.98,4.64-4.02,1.16-2.04,1.75-5.16,1.75-9.36v-16.79h13.47v12.6c0,7.82-1.14,13.62-3.41,17.41-2.27,3.79-5.4,6.3-9.36,7.52-3.97,1.22-8.63,1.84-14,1.84Z"/><path class="cls-1" d="M139.95,345.1v-103.39h13.47v103.39h-13.47Z"/><path class="cls-1" d="M213.63,196.05c-.47-.17-.99-.05-1.35,.3l-6.87,6.56s-.19,.18-.16,.31c.04,.17,.12,.19,.3,.25,2.04,.7,3.64,2.07,4.81,4.11,1.16,2.04,1.75,5.05,1.75,9.01l-.02,105.95c0,4.08-.59,7.15-1.75,9.18-1.17,2.04-2.77,3.41-4.81,4.11-2.04,.7-4.4,1.05-7.09,1.05s-5.02-.35-7-1.05c-1.98-.7-3.56-2.07-4.72-4.11-1.17-2.04-1.75-5.1-1.75-9.18l.02-98.83c0-.49-.59-.74-.94-.4l-12.18,11.63c-.11,.11-.17,.25-.17,.4l-.02,83c0,7.7,1.16,13.47,3.5,17.32,2.33,3.85,5.48,6.39,9.45,7.61,3.96,1.22,8.57,1.84,13.82,1.84s9.91-.61,14-1.84c4.08-1.22,7.29-3.73,9.62-7.52,2.33-3.79,3.5-9.59,3.5-17.41l.02-101.41c0-6.41-1.17-11.25-3.5-14.52-2.12-2.96-4.94-5.08-8.45-6.36Z"/></g><g><path class="cls-1" d="M216.35,8.95l.28,142.34-62.94,60.94-126.35-.47H8.95V70.75L70.59,8.95H216.35M225.28,0H66.88L0,67.05V220.7H27.34l129.96,.48,68.29-66.12-.31-155.07h0Z"/><path class="cls-1" d="M151.16,110.11h0l-36.08-36.08v-21.46h0v-17.01h58.25v-8.82H78.13l-44.17,44.29,28.75,27.99-12.8,12.8,60.27,60.27v13.37l-58.23-.26-.04,8.82,94.75,.43,44.96-43.87-40.47-40.47Zm-36.07-24.99l20.54,20.54h-20.54v-20.54Zm0,29.36h20.62l-20.62,20.62v-20.62ZM46.51,70.94l35.28-35.37h28.39v15.99l-41.23,41.23-22.44-21.85Zm43.13,34.72l20.54-20.54v20.54h-20.54Zm20.54,8.82v20.62l-20.62-20.62h20.62Zm-37.72-18.27l37.72-37.72v15.54l-29.84,29.84m-23.5,7.96l9.38-9.38,12.36,12.04h0l31.59,31.7v18.99l-53.34-53.34Zm86.25,73.79l-28.01-.13v-39.3l29.84-29.84,34.15,34.15-35.98,35.11Z"/></g></g></g></svg>