<?xml version="1.0" encoding="UTF-8"?><svg id="_ар_2" xmlns="http://www.w3.org/2000/svg" viewBox="0 0 154.53 154.55"><defs><style>.cls-1{fill:#f0f0f0;}</style></defs><g id="_лой_1"><g id="dDTXgt.tif"><g><path class="cls-1" d="M110.46,154.55c-.94-.81-1.94-1.57-2.82-2.45-6.67-6.64-13.33-13.28-19.95-19.97-.95-.97-1.89-1.39-3.27-1.39-10.97,.03-21.95,.34-32.9-.13-18.69-.81-33.16-9.44-43.32-25.1C2.19,96.26-.34,85.96,.04,74.97c.28-8.26,2.47-16.06,6.39-23.35,1-1.86,2.65-2.52,4.24-1.74,1.61,.79,2.11,2.6,1.09,4.54-2.66,5.08-4.49,10.41-5.26,16.1-1.43,10.62,.41,20.65,5.7,29.96,6.01,10.57,14.86,17.82,26.36,21.79,5.19,1.79,10.54,2.49,16.02,2.48,10.51-.02,21.03,.02,31.54-.03,1.89,0,3.33,.59,4.66,1.95,5.32,5.42,10.73,10.76,16.08,16.15,.38,.38,.59,.93,.88,1.4l.5-.37c.03-.42,.08-.85,.08-1.27,0-4.93,0-9.86,0-14.79,0-2.83,.59-3.63,3.38-4.29,7.53-1.78,14.26-5.14,20.08-10.22,8.89-7.76,14.38-17.47,16.13-29.18,1.72-11.55-.53-22.33-6.75-32.19-6.95-11.01-16.84-18.14-29.53-21.03-4.12-.94-8.47-.92-12.71-1.32-.7-.07-1.42,.03-2.11-.08-1.72-.26-2.75-1.48-2.69-3.08,.05-1.59,1.2-2.85,2.93-2.84,3.42,.03,6.86,0,10.24,.38,8.21,.93,15.82,3.7,22.74,8.25,9.48,6.23,16.39,14.58,20.63,25.12,2.04,5.07,3.29,10.33,3.65,15.79,.02,.29,.14,.58,.22,.87v6.64c-.1,.64-.22,1.27-.29,1.91-1.01,9.44-4.18,18.08-9.72,25.79-7.27,10.11-16.91,16.9-28.87,20.39-.98,.29-1.33,.7-1.32,1.76,.06,6.74,0,13.48,.05,20.22,.01,1.88-.63,3.2-2.41,3.9h-1.51Z"/><path class="cls-1" d="M32.04,21.62c1.75,0,3.41-.04,5.06,0,3.03,.08,4.94,1.84,5,4.88,.1,4.77,.1,9.56,0,14.33-.06,2.96-1.92,4.79-4.88,4.84-5.38,.08-10.76,.09-16.14,0-2.82-.05-4.78-1.94-4.78-4.61,.02-6.99-.08-13.99,.35-20.95,.38-6.13,2.59-11.66,7.6-15.67C28.02,1.42,32.46,.28,37.15,0c1.84-.1,3.14,1.15,3.2,3.09,.09,2.96,.09,5.93,0,8.9-.06,1.8-1.07,2.72-2.95,3.06-3.47,.64-5.17,2.64-5.36,6.56Zm3.98,6.03c-2.31,0-4.46,.03-6.62,0-2.7-.04-3.86-1.28-3.72-3.95,.06-1.15,.14-2.31,.33-3.45,.81-4.78,2.9-8.64,7.71-10.51,.28-.11,.56-.55,.6-.86,.09-.77,.03-1.56,.03-2.43-2.75,.44-4.98,1.47-6.89,3.21-3.22,2.92-4.58,6.77-4.81,10.9-.34,6.17-.24,12.35-.33,18.53,0,.14,.08,.28,.13,.46h13.56v-11.9Z"/><path class="cls-1" d="M62.8,21.62c1.75,0,3.4-.03,5.05,0,3.25,.07,5.13,1.95,5.15,5.21,.03,4.53,.03,9.05,0,13.58-.02,3.29-1.83,5.23-5.09,5.27-5.23,.07-10.46,.07-15.69,0-3.06-.04-5.06-1.88-5.07-4.82,0-6.74-.06-13.49,.3-20.21,.28-5.42,1.99-10.46,5.84-14.53,3.25-3.43,7.35-5.16,11.95-5.83,.75-.11,1.5-.2,2.25-.27,2.26-.21,3.7,1.02,3.74,3.28,.05,2.82,.04,5.63,0,8.45-.03,1.81-.89,2.83-2.57,3.24-4.11,1-5.13,2.11-5.85,6.62Zm2.39-15.11c-5.67,.8-9.8,4.78-11.14,10.84-1.61,7.25-.73,14.62-.85,21.94,0,.08,.11,.16,.18,.25h13.46v-11.89c-2.33,0-4.54,.04-6.75-.01-2.35-.05-3.67-1.23-3.55-3.36,.12-2.05,.32-4.12,.81-6.1,.88-3.56,2.81-6.51,6.31-7.96,1.38-.57,1.67-1.32,1.53-2.57-.04-.34,0-.69,0-1.14Z"/><path class="cls-1" d="M77.25,59.6c-11.82,0-23.64,0-35.45,0-.5,0-1.01,.02-1.51-.02-1.92-.15-3.16-1.31-3.18-2.96-.03-1.72,1.23-2.9,3.25-3.04,.35-.02,.7-.01,1.06-.01,23.89,0,47.77,0,71.66,0,.65,0,1.31,.02,1.95,.14,1.39,.26,2.38,1.52,2.36,2.9-.02,1.39-1.02,2.61-2.43,2.85-.69,.12-1.4,.13-2.1,.13-11.87,0-23.74,0-35.6,0Z"/><path class="cls-1" d="M77.25,69.68c11.97,0,23.94,0,35.9,0,2.79,0,4.21,1,4.24,2.96,.03,2-1.47,3.07-4.31,3.07-23.89,0-47.77,0-71.66,0-.65,0-1.31-.03-1.94-.17-1.5-.34-2.46-1.62-2.36-3.05,.1-1.45,1.2-2.59,2.72-2.77,.55-.06,1.1-.04,1.66-.04,11.92,0,23.84,0,35.75,0Z"/><path class="cls-1" d="M77.26,91.78c-11.92,0-23.84,0-35.75,0-.55,0-1.11,.02-1.66-.04-1.51-.17-2.62-1.31-2.73-2.76-.1-1.43,.86-2.72,2.35-3.07,.58-.13,1.19-.16,1.79-.16,23.99,0,47.97,0,71.96,0,.25,0,.5,0,.75,0,2.07,.09,3.43,1.31,3.41,3.06-.02,1.76-1.37,2.96-3.47,2.97-12.22,.01-24.44,0-36.66,0Z"/><path class="cls-1" d="M94.76,101.87c6.14,0,12.27,0,18.41,0,2.78,0,4.2,1.02,4.22,2.99,.02,1.97-1.43,3.05-4.17,3.05-12.42,0-24.84,0-37.26,0-.25,0-.5,0-.75,0-2.12-.12-3.42-1.3-3.39-3.07,.03-1.73,1.27-2.88,3.33-2.95,1.96-.07,3.92-.02,5.88-.02,4.58,0,9.15,0,13.73,0Z"/><path class="cls-1" d="M86.88,26.5c0,1.57-1.44,3-3,3-1.56,0-2.99-1.44-2.99-3.01,0-1.6,1.39-2.97,3-2.97,1.61,0,2.99,1.39,2.99,2.98Z"/><path class="cls-1" d="M57.82,107.85c-1.64,.02-2.99-1.27-3.03-2.9-.04-1.69,1.33-3.05,3.04-3.03,1.65,.02,2.96,1.34,2.96,2.97,0,1.62-1.33,2.95-2.97,2.96Z"/></g></g></g></svg>