<?xml version="1.0" encoding="UTF-8"?><svg id="_ар_2" xmlns="http://www.w3.org/2000/svg" viewBox="0 0 95.74 95.75"><defs><style>.cls-1{fill:#f0f0f0;}</style></defs><g id="_лой_1"><g id="OHee98.tif"><g><path class="cls-1" d="M28.72,95.75c0-5.88-.03-11.76,.01-17.65,.02-2.52-1.06-4.21-3.36-5.23-2.91-1.29-5.78-2.68-8.69-3.97-.41-.18-1.05-.18-1.46,0-2.94,1.31-5.83,2.72-8.78,4.02-2.28,1.01-3.29,2.71-3.27,5.18,.04,5.88,.01,11.76,.01,17.65H0v-19.55c.18-.52,.35-1.06,.55-1.57,.8-2.05,2.22-3.51,4.21-4.43,2.4-1.11,4.81-2.23,7.32-3.39-.32-.24-.55-.41-.77-.58-2.15-1.63-3.3-3.78-3.32-6.49,0-1.79-.1-3.61,.18-5.36,.64-4.03,4.33-6.78,8.41-6.48,4.02,.3,7.23,3.66,7.34,7.71,.04,1.46,.03,2.92,0,4.39-.06,2.62-1.11,4.38-4.05,6.82,1.87,.87,3.7,1.72,5.53,2.56,.63,.29,1.28,.56,1.9,.88,2.99,1.53,4.58,3.98,4.6,7.35,.04,6.05,.01,12.1,.01,18.14h-3.19Zm-7.98-37.85h0c0-.8,.04-1.59,0-2.39-.16-2.49-2.26-4.44-4.76-4.44-2.49,0-4.64,1.95-4.77,4.42-.08,1.52-.09,3.06,0,4.58,.11,1.78,1.09,3.01,2.6,3.98,1.54,.99,2.89,.87,4.37-.04,1.6-.99,2.48-2.35,2.56-4.22,.03-.63,0-1.26,0-1.89Z"/><path class="cls-1" d="M92.54,95.75c0-5.88-.03-11.76,.01-17.65,.02-2.52-1.06-4.21-3.36-5.23-2.91-1.29-5.78-2.68-8.69-3.97-.41-.18-1.05-.18-1.46,0-2.94,1.31-5.83,2.72-8.78,4.02-2.28,1.01-3.29,2.71-3.27,5.18,.04,5.88,.01,11.76,.01,17.65h-3.19c0-5.88,.02-11.76,0-17.64-.02-3.83,1.66-6.52,5.15-8.1,2.29-1.03,4.56-2.11,6.95-3.21-.37-.27-.63-.45-.88-.65-2.07-1.61-3.19-3.71-3.21-6.34-.02-1.82-.1-3.68,.19-5.46,.64-4.01,4.36-6.77,8.42-6.46,4.02,.31,7.22,3.67,7.32,7.72,.04,1.39,.04,2.79,0,4.19-.06,2.62-1.15,4.73-3.22,6.34-.25,.2-.52,.38-.88,.65,2.49,1.16,4.89,2.28,7.29,3.38,1.89,.87,3.35,2.21,4.09,4.15,.41,1.09,.66,2.31,.67,3.48,.07,5.98,.03,11.96,.03,17.94h-3.19Zm-7.98-37.96c0-.66,.02-1.33,0-1.99-.07-2.66-2.17-4.73-4.79-4.72-2.61,0-4.72,2.08-4.78,4.73-.03,1.23-.01,2.45,0,3.68,.02,2.67,2.03,5.03,4.65,5.45,.15,.02,.32-.03,.47-.08,3.27-1.08,4.46-2.73,4.46-6.18,0-.3,0-.6,0-.9Z"/><path class="cls-1" d="M6.38,95.75v-15.89h3.19v15.89h-3.19Z"/><path class="cls-1" d="M22.34,95.75v-15.89h3.19v15.89h-3.19Z"/><path class="cls-1" d="M70.2,95.75v-15.89h3.19v15.89h-3.19Z"/><path class="cls-1" d="M86.16,95.75v-15.89h3.19v15.89h-3.19Z"/><path class="cls-1" d="M31.94,68.56v-6.26c1.1-.28,2.22-.55,3.33-.83,1.03-.27,1.43-1.27,.87-2.19-.58-.96-1.16-1.92-1.7-2.81,1.51-1.52,2.96-2.97,4.47-4.48,.89,.54,1.85,1.13,2.82,1.71,.94,.56,1.92,.17,2.18-.88,.28-1.09,.54-2.18,.82-3.31h6.28c.27,1.11,.54,2.22,.83,3.34,.25,.96,1.28,1.4,2.12,.89,.97-.58,1.93-1.17,2.78-1.69l4.52,4.52c-.52,.84-1.13,1.83-1.72,2.82-.47,.79-.02,1.84,.87,2.07,1.12,.28,2.24,.55,3.39,.83v6.29c-1.09,.27-2.18,.55-3.26,.82-1.1,.27-1.5,1.25-.9,2.24,.48,.8,1,1.57,1.43,2.39,.12,.23,.07,.71-.11,.9-1.27,1.35-2.6,2.66-3.97,4.05-1-.61-1.96-1.19-2.91-1.77-.98-.59-1.97-.19-2.24,.9-.27,1.09-.54,2.17-.81,3.27h-6.28c-.28-1.14-.55-2.27-.83-3.39-.23-.91-1.26-1.34-2.06-.87-1,.59-1.98,1.2-2.89,1.76-1.5-1.51-2.95-2.96-4.49-4.49,.53-.87,1.13-1.86,1.72-2.85,.51-.86,.09-1.87-.89-2.12-1.09-.28-2.19-.54-3.35-.83Zm16.55,9.54c.06-.24,.19-.52,.2-.8,.1-1.78,1.15-2.57,2.74-3.26,1.66-.72,2.96-.77,4.31,.42,.36,.31,.72,.5,1.19,.02,.42-.43,.33-.77,0-1.11-1.37-1.44-1.09-2.88-.36-4.58,.63-1.47,1.37-2.4,3-2.48,.94-.04,1.29-.52,.96-1.51-.27-.07-.58-.21-.9-.23-1.71-.1-2.45-1.11-3.11-2.62-.73-1.66-.86-3.02,.38-4.4,.33-.36,.48-.72,0-1.19-.44-.43-.78-.31-1.11,0-1.44,1.37-2.88,1.1-4.58,.35-1.45-.64-2.41-1.36-2.48-3-.04-.96-.52-1.29-1.51-.96-.06,.24-.18,.52-.2,.81-.1,1.78-1.16,2.55-2.74,3.26-1.68,.75-2.96,.71-4.31-.43-.38-.32-.73-.48-1.19,0-.42,.44-.32,.78,0,1.11,1.38,1.44,1.08,2.88,.35,4.58-.63,1.46-1.36,2.42-2.99,2.48-.96,.04-1.29,.51-.99,1.43,.04,.03,.09,.08,.15,.1,.19,.06,.38,.13,.58,.14,1.81,.09,2.65,1.11,3.36,2.75,.72,1.67,.75,2.96-.42,4.31-.32,.37-.49,.72-.01,1.19,.43,.42,.77,.33,1.11,0,1.44-1.35,2.87-1.11,4.57-.36,1.45,.64,2.41,1.36,2.48,3,.04,.95,.51,1.3,1.5,.97Z"/><path class="cls-1" d="M44.02,18.89c-2.29-1.44-3.79-3.34-4.01-5.91-.19-2.17-.22-4.41,.1-6.55C40.69,2.47,44.42-.26,48.46,.02c3.89,.27,7.13,3.48,7.35,7.38,.09,1.69,.12,3.4,0,5.08-.2,2.77-1.63,4.86-4.09,6.41,1.35,.64,2.6,1.23,3.85,1.81,1.2,.56,2.43,1.08,3.61,1.67,3,1.51,4.6,3.96,4.63,7.33,.05,4.95,.01,9.89,.01,14.91h-3.19v-1.08c0-4.45-.03-8.91,.01-13.36,.02-2.48-1.05-4.15-3.31-5.16-2.94-1.31-5.84-2.71-8.78-4.02-.39-.17-.98-.17-1.37,0-3.03,1.35-6.03,2.76-9.05,4.15-2.06,.95-3.04,2.56-3.04,4.82,.01,4.85,0,9.7,0,14.63h-3.15c-.01-.3-.04-.62-.04-.94,0-4.55,0-9.11,0-13.66,0-3.67,1.67-6.26,5-7.8,2.05-.95,4.1-1.89,6.14-2.84,.29-.13,.58-.28,.96-.47Zm8.63-8.97h0c0-.76,.04-1.53,0-2.29-.16-2.49-2.27-4.44-4.76-4.44-2.49,0-4.64,1.95-4.77,4.42-.08,1.52-.09,3.06,0,4.58,.11,1.78,1.09,3.01,2.6,3.98,1.54,.99,2.89,.87,4.37-.04,1.6-.99,2.48-2.35,2.56-4.22,.03-.66,0-1.33,0-1.99Z"/><path class="cls-1" d="M81.37,44.63h-3.19v-1.22c0-9.44,0-18.88,0-28.32,0-1.89-.45-2.32-2.36-2.33-5.18,0-10.37,0-15.55,0h-1.16v-3.14c.29-.02,.58-.05,.87-.05,5.42,0,10.84,0,16.25,0,3.13,0,5.14,1.98,5.14,5.09,0,9.71,0,19.41,0,29.12v.85Z"/><path class="cls-1" d="M17.55,44.63h-3.19v-1.02c0-9.57,0-19.15,0-28.72,0-3.39,1.93-5.32,5.31-5.32,5.32,0,10.64,0,15.95,0h1.02v3.19h-1.05c-5.28,0-10.57,0-15.85,0-1.7,0-2.19,.49-2.19,2.19,0,9.47,0,18.95,0,28.42,0,.39,0,.79,0,1.25Z"/><path class="cls-1" d="M69.03,58.57l-2.83,.94c-3.37-8.28-9.33-13.17-18.35-13.16-8.99,.01-14.93,4.88-18.29,13.14l-2.8-.9c.83-7.37,11.06-15.19,20.15-15.5,12.08-.41,20.14,8.13,22.13,15.48Z"/><path class="cls-1" d="M34.16,83l1.87-2.4c7.88,5.33,15.72,5.34,23.68,0l1.84,2.34c-6.89,5.91-18.93,6.84-27.39,.05Z"/><path class="cls-1" d="M41.45,28.81v12.62h-3.1v-12.62h3.1Z"/><path class="cls-1" d="M54.28,41.41v-12.62h3.1v12.62h-3.1Z"/><path class="cls-1" d="M47.88,59.04c3.52,0,6.38,2.88,6.37,6.42-.01,3.48-2.87,6.34-6.34,6.35-3.53,.01-6.41-2.85-6.42-6.37-.01-3.52,2.86-6.4,6.39-6.39Zm-.02,3.19c-1.72,0-3.17,1.45-3.18,3.17,0,1.75,1.41,3.18,3.15,3.2,1.78,.02,3.24-1.44,3.23-3.22-.02-1.74-1.45-3.15-3.19-3.15Z"/></g></g></g></svg>