<?xml version="1.0" encoding="UTF-8"?><svg id="_ар_2" xmlns="http://www.w3.org/2000/svg" viewBox="0 0 157.28 242.08"><defs><style>.cls-1{fill:#f0f0f0;}</style></defs><g id="_лой_1"><g><g><path class="cls-1" d="M18.42,241.47c-3.82,0-7.12-.63-9.88-1.89-2.77-1.26-4.88-3.43-6.34-6.53-1.46-3.09-2.2-7.36-2.2-12.81v-4.15H9.64v4.76c0,3.82,.37,6.77,1.1,8.84,.73,2.07,1.79,3.52,3.17,4.33,1.38,.81,2.93,1.22,4.63,1.22,2.76,0,5.04-.91,6.83-2.74,1.79-1.83,2.68-5.14,2.68-9.94,0-3.5-.53-6.12-1.59-7.87-1.06-1.75-2.64-3.15-4.76-4.21-2.12-1.06-4.76-2.24-7.93-3.54-2.68-1.14-5.04-2.48-7.07-4.03-2.03-1.54-3.58-3.56-4.64-6.04-1.06-2.48-1.59-5.59-1.59-9.33,0-4.39,.59-7.99,1.77-10.79,1.18-2.81,3.11-4.9,5.79-6.28,2.68-1.38,6.3-2.07,10.86-2.07,5.77,0,10.25,1.4,13.42,4.21,3.17,2.81,4.76,6.81,4.76,12.01v8.17h-9.27v-5.61c0-3.82-.73-6.67-2.2-8.54-1.46-1.87-3.7-2.81-6.71-2.81-3.17,0-5.45,.94-6.83,2.81-1.38,1.87-2.07,4.76-2.07,8.66,0,3.01,.59,5.39,1.77,7.14,1.18,1.75,2.72,3.09,4.64,4.03,1.91,.94,3.92,1.81,6.04,2.62,3.66,1.38,6.61,2.83,8.84,4.33,2.24,1.51,3.88,3.44,4.94,5.79,1.06,2.36,1.59,5.73,1.59,10.12,0,4.96-.81,8.93-2.44,11.89-1.63,2.97-3.88,5.08-6.77,6.34-2.89,1.26-6.28,1.89-10.18,1.89Z"/><path class="cls-1" d="M66.72,242.08c-3.66,0-6.91-.43-9.76-1.28-2.85-.85-5.08-2.62-6.71-5.31-1.63-2.68-2.44-6.71-2.44-12.08v-39.76c0-4.47,.81-7.87,2.44-10.19,1.63-2.32,3.88-3.88,6.77-4.7,2.89-.81,6.16-1.22,9.82-1.22s6.97,.43,9.7,1.28c2.72,.85,4.88,2.42,6.46,4.7,1.59,2.28,2.38,5.65,2.38,10.12v13.17h-9.39v-13.42c0-2.93-.41-5.1-1.22-6.53-.81-1.42-1.91-2.36-3.29-2.81-1.38-.45-2.97-.67-4.76-.67s-3.38,.23-4.76,.67c-1.38,.45-2.46,1.38-3.23,2.81-.77,1.42-1.16,3.6-1.16,6.53v42.94c0,2.93,.39,5.1,1.16,6.53,.77,1.42,1.85,2.36,3.23,2.81,1.38,.45,2.97,.67,4.76,.67s3.48-.22,4.82-.67c1.34-.45,2.42-1.38,3.23-2.81,.81-1.42,1.22-3.6,1.22-6.53v-11.71h9.39v8.78c0,5.45-.79,9.5-2.38,12.14-1.59,2.64-3.76,4.39-6.53,5.24-2.77,.85-6.02,1.28-9.76,1.28Z"/><path class="cls-1" d="M97.58,240.62v-72.09h9.39v72.09h-9.39Z"/><path class="cls-1" d="M148.95,136.69c-.32-.12-.69-.03-.94,.21l-4.79,4.57s-.14,.12-.11,.22c.03,.12,.09,.13,.21,.17,1.42,.49,2.54,1.44,3.35,2.87,.81,1.42,1.22,3.52,1.22,6.28l-.02,73.88c0,2.85-.41,4.98-1.22,6.4-.81,1.42-1.93,2.38-3.35,2.87-1.42,.49-3.07,.73-4.94,.73s-3.5-.24-4.88-.73c-1.38-.49-2.48-1.44-3.29-2.87-.81-1.42-1.22-3.56-1.22-6.4v-68.91c.01-.34-.4-.52-.64-.28l-8.5,8.11c-.08,.07-.12,.17-.12,.28v57.87c-.01,5.37,.8,9.39,2.43,12.08,1.63,2.68,3.82,4.45,6.59,5.31,2.76,.85,5.98,1.28,9.64,1.28s6.91-.43,9.76-1.28c2.85-.85,5.08-2.6,6.71-5.24,1.63-2.64,2.44-6.69,2.44-12.14l.02-70.7c0-4.47-.81-7.85-2.44-10.12-1.48-2.07-3.44-3.54-5.89-4.44Z"/></g><g><path class="cls-1" d="M150.85,6.24l.2,99.25-43.88,42.49-88.1-.33H6.24V49.33L49.22,6.24h101.62m6.22-6.24H46.63L0,46.75v107.13H19.06l90.61,.34,47.61-46.1-.21-108.12h0Z"/><path class="cls-1" d="M105.39,76.77h0l-25.15-25.16v-14.96h0v-11.86h40.61v-6.15H54.48l-30.8,30.88,20.05,19.52-8.93,8.93,42.02,42.02v9.32l-40.6-.18-.03,6.15,66.06,.3,31.35-30.59-28.21-28.21Zm-25.15-17.42l14.32,14.32h-14.32v-14.32Zm0,20.47h14.38l-14.38,14.38v-14.38Zm-47.81-30.36l24.6-24.66h19.79v11.15l-28.75,28.75-15.65-15.23Zm30.07,24.21l14.32-14.32v14.32h-14.32Zm14.32,6.15v14.38l-14.38-14.38h14.38Zm-26.3-12.74l26.3-26.3v10.84l-20.81,20.81m-16.38,5.55l6.54-6.54,8.62,8.39h0l22.03,22.1v13.24l-37.19-37.19Zm60.14,51.45l-19.53-.09v-27.4l20.8-20.8,23.81,23.81-25.09,24.48Z"/></g></g></g></svg>