<?xml version="1.0" encoding="UTF-8"?><svg id="_ар_2" xmlns="http://www.w3.org/2000/svg" viewBox="0 0 72.27 69"><defs><style>.cls-1{fill:#f0f0f0;}</style></defs><g id="_лой_1"><g id="XifK4r.tif"><g><path class="cls-1" d="M64.11,24.92c-.62-.52-1.17-1.01-1.76-1.45-.3-.22-.41-.46-.41-.83,.02-1.98,0-3.96,0-5.94v-.5c.1,.04,.18,.05,.23,.09,2.39,1.97,4.83,3.88,7.14,5.94,1.98,1.76,2.92,4.1,2.92,6.75,.02,10.66,.03,21.31,0,31.97-.01,4.61-3.56,8.05-8.17,8.05-18.64,0-37.28,0-55.92,0-4.61,0-8.14-3.46-8.15-8.06-.02-10.66-.02-21.31,0-31.97,0-2.79,1.05-5.17,3.17-7.01,2.26-1.96,4.58-3.84,6.88-5.76,.04-.04,.1-.06,.2-.12,.01,.16,.04,.29,.04,.42,0,2.06,0,4.11,0,6.17,0,.33-.12,.53-.37,.72-.59,.46-1.16,.95-1.81,1.49,.62,.5,1.16,.94,1.71,1.38,6.8,5.39,13.6,10.78,20.39,16.17,1.92,1.52,3.84,3.03,5.75,4.57,.27,.21,.43,.2,.7-.01,8.5-6.84,17-13.68,25.51-20.51,.61-.49,1.22-.98,1.91-1.53ZM10.07,63.43H62.22c-.11-.15-.17-.25-.25-.33-5.32-5.32-10.65-10.64-15.97-15.97-.27-.27-.43-.25-.7-.02-2.32,1.89-4.66,3.75-6.99,5.63-1.27,1.02-2.57,1.04-3.84,.04-2.44-1.93-4.88-3.86-7.31-5.81-.3-.24-.46-.19-.71,.06-5.23,5.24-10.47,10.48-15.71,15.71-.2,.2-.39,.41-.66,.69Zm-4.48-3.53c5.56-5.57,11.13-11.14,16.72-16.74L5.71,30c-.19,.63-.26,29.39-.12,29.9Zm44.53-16.66c5.55,5.56,11.05,11.08,16.59,16.62v-.52c0-9.31,0-18.62,0-27.93,0-.35-.02-.69-.05-1.04,0-.09-.06-.18-.12-.34l-16.42,13.2Z"/><path class="cls-1" d="M54.09,29.09v-.61c0-7.67,0-15.33,0-23q0-.62-.61-.62c-11.57,0-23.13,0-34.7,0-.63,0-.63,0-.63,.66,0,7.6,0,15.21,0,22.81v.68c-.82-.64-1.53-1.21-2.25-1.78-.75-.59-1.49-1.19-2.24-1.77-.25-.19-.36-.4-.36-.72,0-7.41,0-14.82,0-22.22C13.31,1.03,14.33,0,15.82,0c13.55,0,27.09,0,40.64,0,1.46,0,2.49,1.03,2.5,2.48,0,7.45,0,14.91,0,22.36,0,.2-.09,.46-.24,.58-1.45,1.19-2.91,2.36-4.38,3.53-.05,.04-.1,.06-.24,.13Z"/></g></g></g></svg>