<?xml version="1.0" encoding="UTF-8"?><svg id="_ар_2" xmlns="http://www.w3.org/2000/svg" viewBox="0 0 1895.51 620.22"><defs><style>.cls-1{fill:none;stroke:#000;stroke-miterlimit:10;}</style></defs><g id="_лой_1"><g><line class="cls-1" y1=".5" x2="1895.51" y2=".5"/><g><g><polyline class="cls-1" points="111.02 .5 111.02 616.46 191.28 616.46"/><path d="M191.1,620.22c2.08,0,3.76-1.68,3.76-3.76s-1.68-3.76-3.76-3.76-3.76,1.68-3.76,3.76,1.68,3.76,3.76,3.76Z"/></g><g><line class="cls-1" x1="111.02" y1="456.29" x2="191.28" y2="456.29"/><path d="M191.1,460.05c2.08,0,3.76-1.68,3.76-3.76s-1.68-3.76-3.76-3.76-3.76,1.68-3.76,3.76,1.68,3.76,3.76,3.76Z"/></g><g><line class="cls-1" x1="111.02" y1="300.49" x2="191.28" y2="300.49"/><path d="M191.1,304.25c2.08,0,3.76-1.68,3.76-3.76s-1.68-3.76-3.76-3.76-3.76,1.68-3.76,3.76,1.68,3.76,3.76,3.76Z"/></g><g><line class="cls-1" x1="111.02" y1="146.4" x2="191.28" y2="146.4"/><path d="M191.1,150.16c2.08,0,3.76-1.68,3.76-3.76s-1.68-3.76-3.76-3.76-3.76,1.68-3.76,3.76,1.68,3.76,3.76,3.76Z"/></g></g></g></g></svg>