<?xml version="1.0" encoding="UTF-8"?><svg id="_ар_2" xmlns="http://www.w3.org/2000/svg" viewBox="0 0 63.85 57.34"><defs><style>.cls-1{fill:#f0f0f0;}</style></defs><g id="_лой_1"><g id="Z4jJKn.tif"><path class="cls-1" d="M0,26.98c.15-.46,.25-.95,.45-1.39,.44-.98,1.22-1.66,2.15-2.14,.93-.48,1.89-.88,2.86-1.29,2.89-1.23,5.78-2.44,8.67-3.65,5.07-2.14,10.14-4.27,15.21-6.41,5.23-2.2,10.46-4.41,15.69-6.61,3.91-1.65,7.83-3.29,11.75-4.92,.9-.38,1.84-.61,2.84-.57,1.96,.08,3.69,1.51,4.11,3.44,.22,1,.13,1.98-.06,2.97-.41,2.06-.81,4.12-1.21,6.18-.4,2.05-.8,4.11-1.2,6.16-.48,2.48-.97,4.95-1.45,7.43-.47,2.41-.94,4.81-1.41,7.22-.58,2.97-1.16,5.93-1.73,8.9-.6,3.07-1.2,6.14-1.8,9.21-.11,.59-.23,1.17-.34,1.76-.15,.74-.56,1.36-1.01,1.94-1.35,1.71-3.16,2.29-5.27,2.11-.75-.06-1.47-.26-2.14-.6-.29-.14-.54-.36-.8-.56-3.69-2.83-7.39-5.67-11.08-8.5-.04-.03-.08-.06-.14-.1-.53,.48-1.06,.96-1.59,1.45-1.83,1.66-3.63,3.36-5.5,4.98-.94,.81-2.11,1-3.35,.74-1.27-.27-1.99-1.15-2.56-2.21-.5-.94-.79-1.97-1.1-2.98-1.16-3.78-2.32-7.55-3.48-11.33-.19-.61-.38-1.21-.56-1.83-.04-.15-.12-.22-.27-.27-3.44-1.15-6.87-2.31-10.3-3.47-.76-.26-1.54-.51-2.26-.85-1.1-.53-2.03-1.3-2.59-2.42-.21-.42-.31-.91-.46-1.36-.02-.06-.04-.12-.05-.18,0-.28,0-.56,0-.84Zm33.8,14.18c.09,.07,.16,.12,.22,.17,2.06,1.58,4.13,3.17,6.19,4.75,2.64,2.02,5.27,4.05,7.91,6.05,.24,.18,.55,.28,.85,.35,.36,.08,.73-.22,.8-.59,.57-2.92,1.14-5.84,1.71-8.76,.84-4.32,1.68-8.64,2.53-12.97,.83-4.23,1.66-8.45,2.48-12.68,.75-3.85,1.5-7.7,2.25-11.55,.06-.29,.1-.59,.15-.88l-.07-.05C41.06,12.49,23.29,19.98,5.46,27.48c.57,.19,1.07,.36,1.57,.53,4.25,1.43,8.49,2.86,12.74,4.28,.07,.02,.19,0,.26-.04,.91-.56,1.82-1.12,2.73-1.69,5.2-3.22,10.41-6.45,15.61-9.67,3.75-2.32,7.5-4.65,11.26-6.97,.28-.17,.63-.26,.96-.35,.22-.06,.47-.02,.57,.22,.12,.28,.2,.6-.04,.87-.25,.27-.49,.55-.76,.8-1.34,1.25-2.68,2.5-4.03,3.75-3.02,2.81-6.03,5.63-9.05,8.44-3.42,3.19-6.85,6.38-10.27,9.58-.09,.08-.16,.21-.18,.33-.24,1.48-.47,2.95-.7,4.43-.31,1.96-.61,3.92-.92,5.89-.06,.39-.12,.78-.18,1.17l.05,.02,8.7-7.93Z"/></g></g></svg>