<?xml version="1.0" encoding="UTF-8"?><svg id="_ар_2" xmlns="http://www.w3.org/2000/svg" viewBox="0 0 93.96 53.65"><defs><style>.cls-1{fill:#f0f0f0;}</style></defs><g id="_лой_1"><g id="NU75jh.tif"><path class="cls-1" d="M0,4.57v-.77c.48-.98,1.35-1.28,2.35-1.33,.16,0,.32,0,.48,0,4.09,0,8.18,0,12.27,0,2.47,0,2.95,.31,3.88,2.59,2.51,6.12,5.62,11.91,9.41,17.33,.94,1.35,1.97,2.64,3.29,3.65,2.09,1.6,3.93,1.06,4.85-1.39,.52-1.37,.71-2.81,.85-4.26,.25-2.6,.21-5.2,.09-7.8-.09-1.86-.15-3.73-.65-5.55-.56-2.05-1.82-3.39-3.83-4.06-.39-.13-.79-.24-1.19-.36,.35-.6,1-1.16,1.77-1.52,1.32-.62,2.74-.89,4.18-.94C40.58,.07,43.41,0,46.23,0c1.93,0,3.85,.19,5.73,.74,1.28,.37,2.11,1.16,2.28,2.48,.15,1.2,.24,2.41,.23,3.62-.06,4.36-.2,8.71-.27,13.07-.02,.94,.05,1.88,.17,2.82,.16,1.27,.53,2.46,1.48,3.4,.66,.66,1.44,.87,2.32,.57,.39-.13,.79-.31,1.09-.58,.83-.74,1.68-1.49,2.4-2.33,2.27-2.66,4.08-5.63,5.81-8.65,1.98-3.45,3.59-7.08,5.03-10.78,.53-1.36,1.16-1.78,2.61-1.78,5.18,0,10.35,0,15.53,0,.68,0,1.37,.06,2.04,.19,1.05,.19,1.41,.7,1.21,1.73-.15,.78-.36,1.56-.66,2.29-1.16,2.78-2.78,5.31-4.53,7.75-2.44,3.39-5,6.71-7.46,10.09-.87,1.2-1.64,2.47-2.37,3.76-.51,.9-.7,1.92-.42,2.96,.29,1.08,.93,1.97,1.68,2.75,1.41,1.46,2.87,2.86,4.29,4.31,2.66,2.71,5.32,5.44,7.57,8.51,.7,.96,1.28,2.02,1.76,3.11,.46,1.04,.18,1.85-.69,2.5-.93,.69-1.98,1.1-3.15,1.11-4.28,0-8.56,0-12.84,0-1.12,0-2.18-.23-3.22-.64-2.05-.82-3.67-2.23-5.14-3.83-1.42-1.56-2.79-3.16-4.19-4.73-1.02-1.14-2.07-2.27-3.41-3.06-1.76-1.04-3.34-.76-4.64,.81-.86,1.03-1.32,2.25-1.62,3.53-.38,1.56-.49,3.15-.49,4.75,0,1.7-1.34,3.31-3.25,3.19-1.48-.09-2.97-.05-4.46-.01-2.99,.07-5.88-.43-8.72-1.32-6.63-2.09-12.05-5.96-16.57-11.17-3.88-4.48-7.14-9.4-10.14-14.49C7,19.52,3.29,12.15,0,4.57Z"/></g></g></svg>